<svg id="splitsvg" version="1.1" xmlns="http://www.w3.org/2000/svg" xmlns:xlink="http://www.w3.org/1999/xlink" width="1380" height="860"><g id="svgg"><path id="path0" d="M0.000 200.000 L 0.000 400.000 200.000 400.000 L 400.000 400.000 400.000 200.000 L 400.000 0.000 200.000 0.000 L 0.000 0.000 0.000 200.000 M237.324 88.210 C 241.706 89.740,243.379 92.703,242.021 96.527 C 240.785 100.007,237.488 101.165,233.126 99.650 C 230.854 98.860,230.865 98.873,231.307 97.601 C 234.893 87.284,234.813 87.500,235.074 87.500 C 235.193 87.500,236.205 87.820,237.324 88.210 M210.633 88.278 C 216.145 88.787,222.460 89.866,227.536 91.165 C 229.982 91.791,230.357 92.003,230.357 92.765 C 230.357 93.755,229.708 93.817,226.847 93.103 C 191.955 84.389,153.352 93.645,127.357 116.956 C 98.256 143.052,84.925 178.888,90.318 216.518 C 96.980 262.995,133.242 301.053,178.906 309.490 C 202.366 313.824,226.069 310.895,246.846 301.092 C 248.119 300.491,249.195 300.000,249.237 300.000 C 249.279 300.000,250.849 299.163,252.726 298.140 C 283.715 281.251,304.744 251.116,309.684 216.518 C 311.521 203.648,311.161 191.242,308.574 178.279 C 307.960 175.204,308.017 174.777,309.040 174.777 C 310.042 174.777,310.611 176.848,311.706 184.487 C 319.284 237.349,289.298 287.745,239.063 306.577 C 236.464 307.551,236.030 307.694,232.031 308.890 C 211.486 315.035,188.514 315.035,167.969 308.890 C 163.970 307.694,163.536 307.551,160.938 306.577 C 89.712 279.877,64.362 193.067,110.083 132.427 C 117.069 123.162,124.988 115.581,135.938 107.673 C 142.098 103.225,152.392 97.881,160.691 94.824 C 172.109 90.618,181.314 88.765,195.313 87.852 C 197.753 87.693,207.112 87.953,210.633 88.278 M233.607 93.337 C 232.263 97.207,231.954 98.322,232.184 98.467 C 232.920 98.931,235.489 99.607,236.534 99.612 C 241.526 99.635,243.626 92.367,239.344 89.889 C 238.654 89.490,235.826 88.393,235.487 88.393 C 235.397 88.393,234.552 90.618,233.607 93.337 M249.024 95.668 C 251.376 96.636,252.575 99.202,251.764 101.529 C 251.436 102.470,251.460 102.475,247.355 100.540 C 243.405 98.677,243.304 98.668,243.304 100.189 C 243.304 103.173,246.716 105.420,248.987 103.932 C 249.642 103.503,250.295 103.458,250.175 103.850 C 249.775 105.154,246.516 105.443,244.721 104.333 C 239.970 101.396,243.868 93.547,249.024 95.668 M246.111 96.306 C 245.276 96.611,243.772 97.865,243.986 98.078 C 244.162 98.254,250.697 101.339,250.893 101.339 C 251.189 101.339,251.390 100.072,251.221 99.275 C 250.731 96.956,248.262 95.522,246.111 96.306 M257.700 100.223 C 259.502 101.095,260.596 103.119,259.856 104.214 C 259.508 104.728,259.127 104.268,259.264 103.498 C 259.607 101.570,256.368 99.629,254.981 100.932 C 254.024 101.831,254.269 102.576,256.027 104.117 C 258.002 105.847,258.533 107.227,257.687 108.434 C 255.878 111.017,250.570 108.447,251.333 105.357 C 251.573 104.386,252.121 104.668,252.045 105.723 C 251.880 108.004,255.678 109.755,256.982 107.999 C 257.639 107.115,257.343 106.417,255.592 104.720 C 253.425 102.619,253.154 101.930,254.049 100.793 C 254.911 99.697,256.198 99.496,257.700 100.223 M265.369 101.538 C 265.605 101.687,265.615 101.833,265.417 102.204 C 265.122 102.755,264.888 102.800,264.532 102.372 C 264.011 101.743,264.665 101.091,265.369 101.538 M263.767 104.329 C 263.451 105.154,258.656 112.050,258.477 111.939 C 258.086 111.697,258.229 111.424,260.743 107.605 C 262.472 104.978,263.324 103.868,263.546 103.953 C 263.721 104.020,263.821 104.190,263.767 104.329 M269.196 107.818 C 270.636 108.551,271.652 110.123,271.652 111.617 L 271.652 112.311 272.230 111.624 C 273.284 110.371,273.604 110.895,272.600 112.232 C 267.977 118.398,266.983 119.397,265.275 119.589 C 263.427 119.798,260.788 118.111,260.372 116.457 C 260.133 115.504,260.345 113.951,260.714 113.951 C 260.964 113.951,261.031 114.159,260.977 114.775 C 260.639 118.655,265.725 120.271,268.041 117.020 L 268.496 116.380 267.228 116.466 C 263.613 116.713,261.197 112.632,263.143 109.564 C 264.564 107.325,266.903 106.649,269.196 107.818 M265.418 108.427 C 261.979 110.180,262.822 115.364,266.616 115.791 C 268.510 116.005,270.505 114.498,270.892 112.560 C 271.490 109.570,268.138 107.040,265.418 108.427 M276.416 113.918 C 276.337 114.059,276.079 114.390,275.841 114.655 L 275.409 115.135 276.530 115.144 C 278.348 115.158,279.905 116.260,280.389 117.877 C 280.836 119.369,280.351 120.458,278.187 122.824 C 275.360 125.913,275.487 125.799,275.195 125.507 C 275.001 125.314,275.470 124.668,277.097 122.888 C 280.284 119.400,280.569 117.454,278.080 116.161 C 276.251 115.211,275.004 115.731,272.313 118.565 C 270.597 120.372,270.134 120.747,269.930 120.501 C 269.631 120.141,275.801 113.407,276.282 113.569 C 276.435 113.621,276.495 113.778,276.416 113.918 M290.627 124.609 C 292.669 125.999,293.447 128.345,292.419 130.009 C 291.546 131.421,290.952 130.995,291.741 129.523 C 293.133 126.926,289.481 123.451,287.334 125.329 C 286.401 126.145,286.453 126.987,287.588 129.414 C 289.034 132.507,288.888 133.984,287.045 134.938 C 283.689 136.673,279.671 131.983,281.782 128.794 C 282.107 128.303,282.463 127.902,282.574 127.902 C 283.003 127.902,282.945 128.493,282.444 129.237 C 280.755 131.741,283.976 135.624,286.612 134.261 C 288.051 133.517,288.109 132.357,286.839 129.648 C 285.543 126.882,285.668 125.303,287.253 124.441 C 288.167 123.944,289.767 124.024,290.627 124.609 M293.527 132.478 C 294.098 133.402,294.228 133.422,295.160 132.734 C 296.232 131.942,296.357 131.899,296.632 132.230 C 296.834 132.474,296.657 132.683,295.757 133.260 L 294.628 133.985 295.000 134.570 C 295.204 134.893,295.609 135.476,295.900 135.867 C 296.497 136.670,296.570 137.054,296.125 137.054 C 295.959 137.054,295.455 136.501,295.007 135.826 C 293.994 134.301,294.265 134.260,291.258 136.393 C 288.107 138.628,287.794 139.164,288.723 140.749 C 289.376 141.864,289.204 142.756,288.513 141.841 C 286.693 139.432,287.094 138.390,290.864 135.739 C 292.329 134.709,293.527 133.824,293.527 133.771 C 293.527 133.719,293.267 133.335,292.950 132.919 C 292.420 132.224,292.378 131.696,292.852 131.696 C 292.958 131.696,293.261 132.048,293.527 132.478 M297.835 138.693 C 297.911 138.891,297.103 139.498,295.460 140.477 C 291.424 142.880,290.642 144.183,292.020 146.208 C 293.509 148.395,294.727 148.394,298.448 146.199 C 300.866 144.773,301.563 144.523,301.563 145.079 C 301.563 145.303,297.345 147.820,296.100 148.339 C 292.486 149.844,289.128 145.201,291.658 142.195 C 292.144 141.617,297.160 138.395,297.577 138.394 C 297.656 138.393,297.772 138.528,297.835 138.693 M302.586 149.308 C 305.084 150.442,306.131 153.252,305.028 155.860 C 304.904 156.153,305.451 155.976,307.214 155.153 C 308.948 154.343,309.594 154.132,309.678 154.349 C 309.852 154.805,310.569 154.419,302.892 158.006 C 300.493 159.127,298.459 160.045,298.372 160.045 C 297.888 160.045,298.334 159.323,299.051 158.944 C 299.622 158.643,299.753 158.499,299.462 158.492 C 298.700 158.474,297.191 157.416,296.523 156.430 C 293.897 152.559,298.316 147.368,302.586 149.308 M299.829 149.773 C 297.376 150.353,295.938 152.710,296.683 154.933 C 297.714 158.012,301.364 158.818,303.614 156.464 C 306.314 153.639,303.620 148.877,299.829 149.773 M311.033 158.632 C 311.175 159.002,310.838 159.365,310.348 159.372 C 309.963 159.377,309.765 158.656,310.093 158.448 C 310.544 158.162,310.877 158.227,311.033 158.632 M308.219 159.724 C 308.147 160.074,307.790 160.232,302.790 162.131 C 299.575 163.351,299.489 163.372,299.393 162.944 C 299.338 162.697,300.098 162.313,302.266 161.494 C 303.887 160.881,305.773 160.163,306.457 159.899 C 307.986 159.308,308.312 159.276,308.219 159.724 M308.207 163.962 C 311.502 165.338,312.142 169.789,309.386 172.149 C 306.089 174.971,301.320 172.625,301.344 168.193 C 301.362 164.958,305.090 162.659,308.207 163.962 M304.576 164.708 C 302.191 165.808,301.427 168.282,302.742 170.647 C 304.023 172.951,307.950 173.163,309.538 171.015 C 312.097 167.555,308.450 162.919,304.576 164.708 M133.092 172.988 C 133.184 172.989,133.259 177.262,133.259 182.481 L 133.259 191.972 139.007 191.912 L 144.754 191.853 144.813 182.427 L 144.871 173.002 152.960 172.941 C 157.409 172.907,161.150 172.906,161.272 172.938 C 161.420 172.976,161.476 181.951,161.438 199.444 L 161.380 225.893 153.625 225.890 C 149.360 225.888,145.645 225.826,145.368 225.752 L 144.866 225.618 144.866 215.822 L 144.866 206.027 139.065 206.027 L 133.264 206.027 133.205 215.904 L 133.147 225.781 125.558 225.846 C 121.384 225.881,117.642 225.851,117.243 225.780 L 116.518 225.649 116.518 199.339 C 116.518 182.022,116.594 173.003,116.741 172.954 C 116.899 172.901,130.308 172.929,133.092 172.988 M200.782 172.992 C 201.447 172.991,201.462 173.019,202.616 176.395 C 204.156 180.900,209.092 195.077,209.669 196.652 C 209.737 196.836,210.356 198.644,211.044 200.670 C 211.733 202.695,212.554 205.056,212.868 205.915 C 213.183 206.775,213.934 208.934,214.537 210.714 C 215.139 212.494,215.727 214.152,215.841 214.397 C 215.956 214.643,216.510 216.229,217.073 217.923 C 217.635 219.617,218.447 221.972,218.876 223.158 C 219.970 226.181,220.773 225.905,210.962 225.888 C 201.944 225.872,202.018 225.881,201.864 224.810 C 201.835 224.608,201.532 223.512,201.191 222.375 L 200.572 220.307 192.328 220.366 L 184.084 220.424 183.275 222.879 C 182.830 224.230,182.387 225.460,182.291 225.614 C 182.109 225.905,165.835 226.045,165.097 225.762 C 164.812 225.653,164.975 225.001,166.091 221.800 C 166.826 219.693,167.931 216.462,168.548 214.621 C 169.164 212.779,169.804 210.971,169.969 210.603 C 170.135 210.234,170.372 209.581,170.497 209.152 C 170.622 208.722,171.240 206.914,171.871 205.134 C 172.502 203.354,173.326 200.993,173.702 199.888 C 174.534 197.445,177.649 188.444,179.611 182.813 C 180.402 180.541,181.400 177.640,181.829 176.365 C 182.258 175.090,182.745 173.784,182.911 173.463 L 183.212 172.879 191.662 172.936 C 196.309 172.967,200.413 172.992,200.782 172.992 M240.347 211.715 C 240.807 211.801,243.443 211.851,246.205 211.826 C 248.968 211.801,251.403 211.791,251.618 211.805 C 251.982 211.829,252.009 212.324,252.009 218.862 L 252.009 225.893 237.853 225.893 C 230.067 225.893,223.538 225.832,223.344 225.757 C 223.025 225.635,222.991 223.097,222.991 199.309 L 222.991 172.997 231.194 172.938 L 239.397 172.879 239.454 192.219 L 239.511 211.558 240.347 211.715 M272.768 192.283 L 272.768 211.564 275.167 211.729 C 276.487 211.819,279.023 211.836,280.804 211.766 C 282.584 211.696,284.318 211.694,284.657 211.761 L 285.274 211.884 285.215 218.832 L 285.156 225.781 270.703 225.839 C 259.215 225.884,256.250 225.839,256.248 225.615 C 256.078 199.303,256.181 172.994,256.455 172.941 C 256.629 172.907,260.370 172.907,264.769 172.941 L 272.768 173.002 272.768 192.283 M187.165 176.742 C 185.952 177.515,185.682 177.983,185.682 179.320 C 185.682 183.303,191.263 183.618,191.666 179.657 C 191.901 177.352,189.078 175.523,187.165 176.742 M194.308 176.745 C 192.465 177.910,192.123 179.830,193.481 181.383 C 195.306 183.469,198.530 182.409,198.812 179.630 C 199.046 177.332,196.232 175.529,194.308 176.745 M123.386 177.009 C 121.953 177.787,121.408 179.406,122.072 180.908 C 123.080 183.187,126.415 183.255,127.570 181.020 C 128.918 178.414,125.982 175.600,123.386 177.009 M152.378 176.721 C 151.310 176.996,150.223 178.493,150.223 179.688 C 150.223 182.715,154.576 183.832,155.963 181.161 C 157.238 178.705,155.075 176.026,152.378 176.721 M229.633 177.024 C 227.208 178.303,227.895 182.170,230.637 182.678 C 231.851 182.903,233.288 182.222,233.777 181.191 C 235.159 178.280,232.437 175.543,229.633 177.024 M263.059 176.914 C 259.675 178.678,261.492 183.582,265.163 182.593 C 267.652 181.923,268.160 178.771,266.027 177.226 C 264.996 176.479,264.078 176.383,263.059 176.914 M185.156 183.249 C 183.934 183.754,183.156 185.425,183.519 186.764 C 184.166 189.154,186.661 189.930,188.503 188.314 C 191.057 186.074,188.324 181.938,185.156 183.249 M196.191 183.476 C 194.460 184.391,194.154 186.892,195.595 188.333 C 196.668 189.406,197.845 189.545,199.188 188.757 C 202.696 186.702,199.786 181.576,196.191 183.476 M124.107 184.429 C 122.434 184.866,121.360 186.722,121.876 188.285 C 122.570 190.388,125.292 191.150,126.853 189.676 C 129.148 187.509,127.124 183.641,124.107 184.429 M152.594 184.383 C 149.782 185.224,149.459 189.024,152.099 190.192 C 155.343 191.627,157.916 187.419,155.235 185.065 C 154.802 184.686,154.310 184.375,154.140 184.375 C 153.970 184.375,153.697 184.333,153.534 184.283 C 153.370 184.232,152.947 184.277,152.594 184.383 M263.620 184.397 C 262.108 184.720,260.964 186.493,261.258 188.059 C 261.698 190.406,265.079 191.311,266.610 189.491 C 268.532 187.207,266.518 183.776,263.620 184.397 M229.171 185.103 C 227.253 186.912,227.883 189.634,230.393 190.386 C 233.799 191.407,235.707 186.357,232.545 184.692 C 231.437 184.109,230.045 184.279,229.171 185.103 M182.656 190.170 C 179.825 191.896,181.422 196.375,184.694 195.885 C 186.353 195.636,187.498 193.997,187.184 192.320 C 186.789 190.218,184.421 189.093,182.656 190.170 M199.230 189.986 C 196.518 190.614,196.060 194.055,198.491 195.537 C 201.092 197.123,204.271 193.959,202.688 191.361 C 201.976 190.195,200.634 189.661,199.230 189.986 M123.270 192.577 C 120.638 193.887,121.780 198.216,124.758 198.213 C 127.220 198.211,128.630 195.721,127.434 193.487 C 126.803 192.308,124.724 191.854,123.270 192.577 M151.897 192.531 C 151.529 192.715,151.002 193.213,150.725 193.639 C 148.960 196.362,152.495 199.599,155.081 197.627 C 158.070 195.347,155.264 190.854,151.897 192.531 M229.546 192.616 C 226.817 194.280,228.093 198.214,231.362 198.214 C 233.453 198.214,234.800 195.742,233.827 193.690 C 233.155 192.274,230.995 191.732,229.546 192.616 M262.448 192.748 C 259.292 194.893,262.716 199.773,265.967 197.764 C 267.255 196.967,267.713 194.925,266.930 193.463 C 266.236 192.165,263.863 191.787,262.448 192.748 M191.655 194.141 C 191.435 194.847,190.616 197.634,189.835 200.335 C 189.055 203.036,188.320 205.564,188.202 205.954 C 187.902 206.944,187.797 206.920,192.336 206.920 C 196.975 206.920,196.703 207.065,195.996 204.967 C 195.758 204.261,194.897 201.373,194.083 198.549 C 193.269 195.725,192.563 193.290,192.514 193.136 C 192.330 192.561,192.044 192.896,191.655 194.141 M131.027 195.803 C 130.588 195.913,129.939 196.339,129.547 196.778 C 126.802 199.841,131.053 203.768,133.963 200.858 C 136.100 198.721,133.978 195.069,131.027 195.803 M138.036 195.958 C 135.941 196.916,135.438 199.382,137.028 200.894 C 138.412 202.211,140.009 202.237,141.337 200.964 C 143.740 198.662,141.049 194.581,138.036 195.958 M146.094 195.733 C 143.945 196.469,143.096 198.180,143.936 200.080 C 145.247 203.042,149.777 202.027,149.777 198.771 C 149.777 196.925,147.675 195.192,146.094 195.733 M180.804 196.586 C 179.112 197.205,178.301 199.585,179.241 201.177 C 181.128 204.375,186.222 201.681,184.605 198.340 C 183.867 196.815,182.236 196.062,180.804 196.586 M200.897 196.892 C 198.660 198.291,198.666 201.096,200.907 202.240 C 204.234 203.937,207.115 199.472,204.152 197.212 C 203.070 196.387,201.889 196.271,200.897 196.892 M123.772 200.086 C 120.028 201.782,122.167 207.147,126.048 205.794 C 128.437 204.961,128.175 200.015,125.740 199.997 C 125.517 199.995,125.134 199.946,124.888 199.888 C 124.643 199.830,124.141 199.919,123.772 200.086 M152.296 200.025 C 150.797 200.457,149.796 202.772,150.512 204.149 C 151.369 205.795,153.008 206.421,154.549 205.690 C 157.971 204.066,155.945 198.973,152.296 200.025 M230.208 200.012 C 228.649 200.485,227.668 202.531,228.273 204.045 C 229.207 206.378,232.402 206.685,233.711 204.567 C 235.199 202.159,232.916 199.189,230.208 200.012 M262.417 200.590 C 260.604 202.271,260.922 204.787,263.058 205.660 C 266.397 207.025,268.966 202.675,266.135 200.449 C 265.238 199.743,263.250 199.818,262.417 200.590 M178.137 203.526 C 175.350 204.902,176.318 209.375,179.402 209.375 C 182.271 209.375,183.641 206.100,181.585 204.159 C 180.519 203.153,179.333 202.936,178.137 203.526 M203.415 203.464 C 201.537 204.313,201.004 206.844,202.376 208.391 C 204.683 210.994,209.017 208.124,207.333 205.109 C 206.397 203.434,204.885 202.799,203.415 203.464 M123.438 207.991 C 121.221 209.069,121.276 212.336,123.530 213.431 C 126.256 214.756,128.790 212.020,127.432 209.216 C 126.675 207.651,125.118 207.174,123.438 207.991 M152.013 207.980 C 150.333 208.824,149.741 210.824,150.733 212.300 C 152.691 215.211,157.039 213.381,156.261 209.973 C 155.808 207.985,153.841 207.062,152.013 207.980 M229.715 207.971 C 227.504 209.060,227.471 212.262,229.660 213.379 C 232.538 214.847,235.327 211.839,233.678 209.045 C 232.849 207.639,231.261 207.209,229.715 207.971 M262.700 208.094 C 260.289 209.700,261.061 213.306,263.907 213.733 C 265.874 214.028,267.188 212.793,267.188 210.650 C 267.188 208.130,264.740 206.736,262.700 208.094 M175.494 210.522 C 173.709 211.665,173.706 214.532,175.489 215.619 C 176.237 216.075,178.571 216.276,178.571 215.884 C 178.571 215.781,178.820 215.584,179.123 215.445 C 179.427 215.307,179.829 214.827,180.016 214.378 C 181.199 211.546,178.066 208.875,175.494 210.522 M205.457 210.391 C 204.514 210.857,204.018 211.796,204.018 213.118 C 204.018 216.275,208.341 217.251,209.694 214.400 C 210.951 211.751,208.123 209.075,205.457 210.391 M183.055 210.659 C 181.596 211.406,181.044 213.467,181.918 214.902 C 183.950 218.234,188.897 215.665,187.285 212.114 C 186.523 210.436,184.709 209.812,183.055 210.659 M190.379 210.773 C 189.215 211.548,188.701 212.777,189.029 214.001 C 189.976 217.543,195.091 217.049,195.088 213.416 C 195.086 210.888,192.437 209.402,190.379 210.773 M198.268 210.713 C 196.705 211.666,196.276 213.273,197.164 214.844 C 199.100 218.264,204.188 215.645,202.520 212.087 C 201.683 210.302,199.891 209.723,198.268 210.713 M123.374 215.855 C 122.171 216.507,121.523 217.888,121.849 219.101 C 122.763 222.495,127.400 222.272,127.822 218.814 C 128.111 216.449,125.492 214.707,123.374 215.855 M152.299 215.558 C 151.600 215.693,150.495 217.037,150.321 217.963 C 149.798 220.754,153.080 222.712,155.212 220.880 C 157.824 218.636,155.771 214.884,152.299 215.558 M229.806 215.778 C 227.807 216.860,227.484 218.867,229.028 220.625 C 230.245 222.011,232.510 221.876,233.565 220.354 C 235.403 217.702,232.586 214.274,229.806 215.778 M237.993 215.561 C 237.218 215.709,235.980 217.071,235.813 217.958 C 235.266 220.873,239.065 222.768,241.095 220.592 C 243.307 218.220,241.280 214.931,237.993 215.561 M245.361 215.773 C 243.345 216.767,243.051 219.388,244.788 220.880 C 246.907 222.701,250.203 220.755,249.684 217.990 C 249.307 215.980,247.168 214.883,245.361 215.773 M262.897 215.786 C 260.117 216.927,261.162 221.450,264.216 221.496 C 265.636 221.517,266.413 221.039,266.978 219.793 C 268.238 217.018,265.779 214.603,262.897 215.786 M270.763 215.793 C 268.717 216.821,268.423 219.353,270.163 220.957 C 270.905 221.641,272.827 221.734,273.749 221.130 C 276.979 219.013,274.209 214.062,270.763 215.793 M278.439 215.753 C 278.059 215.940,277.520 216.500,277.241 216.997 C 275.543 220.018,279.430 223.125,281.893 220.717 C 284.407 218.259,281.583 214.201,278.439 215.753 M173.281 217.178 C 172.261 217.800,171.802 218.806,171.930 220.137 C 172.278 223.758,177.570 223.678,177.839 220.048 C 178.029 217.479,175.450 215.856,173.281 217.178 M207.657 217.178 C 206.659 217.786,206.212 218.567,206.195 219.736 C 206.137 223.542,211.857 223.932,212.221 220.147 C 212.472 217.534,209.860 215.835,207.657 217.178  M -25 0 L -5 0 L -5 20 L -25 20 Z M 405 0 L 425 0 L 425 20 L 405 20 Z" stroke="none" fill="#fbfbfb" fill-rule="evenodd" transform="translate(30,0)"></path><path id="path1" d="M234.944 87.706 C 234.784 87.965,231.033 98.743,231.088 98.785 C 231.527 99.120,235.656 100.223,236.470 100.223 C 242.374 100.223,244.641 91.904,239.457 89.259 C 238.108 88.571,235.058 87.521,234.944 87.706 M193.080 88.081 C 157.091 91.122,127.991 107.383,107.840 135.714 C 76.129 180.297,81.942 243.937,121.133 281.261 C 155.929 314.399,204.912 322.695,247.879 302.727 C 294.649 280.992,320.500 229.797,310.572 178.571 C 309.936 175.290,309.809 175.000,309.006 175.000 C 308.185 175.000,308.163 175.420,308.816 178.738 C 323.971 255.784,256.989 323.962,180.030 309.823 C 101.850 295.459,63.649 205.723,107.478 139.397 C 132.839 101.019,180.138 82.055,224.554 92.456 C 229.716 93.665,229.815 93.676,230.113 93.119 C 230.471 92.451,230.191 91.996,229.274 91.756 C 219.013 89.073,212.111 88.160,201.339 88.062 C 197.349 88.026,193.633 88.034,193.080 88.081 M237.582 88.967 C 241.378 90.379,242.810 93.459,241.200 96.749 C 239.817 99.574,237.189 100.396,233.594 99.127 C 231.478 98.380,231.499 98.983,233.398 93.527 C 235.237 88.245,235.284 88.130,235.579 88.230 C 235.715 88.276,236.616 88.608,237.582 88.967 M245.382 95.956 C 240.985 98.019,242.365 104.911,247.174 104.911 C 248.420 104.911,250.405 104.110,250.046 103.752 C 249.915 103.621,249.553 103.714,249.081 104.002 C 246.568 105.534,243.199 103.470,243.199 100.399 C 243.199 98.414,243.224 98.414,247.442 100.438 C 251.472 102.371,251.432 102.366,251.746 100.964 C 252.562 97.315,248.798 94.353,245.382 95.956 M249.217 96.428 C 250.584 97.089,251.198 98.051,251.286 99.665 C 251.399 101.747,251.322 101.769,248.526 100.440 C 247.188 99.804,245.565 99.040,244.918 98.741 C 243.939 98.289,243.777 98.134,243.949 97.813 C 244.831 96.165,247.321 95.510,249.217 96.428 M254.373 100.687 C 253.368 101.881,253.555 102.554,255.376 104.304 C 257.299 106.152,257.634 106.723,257.323 107.616 C 256.457 110.100,251.955 108.609,251.911 105.824 C 251.893 104.661,251.629 104.443,251.442 105.436 C 250.955 108.031,255.087 110.512,257.090 108.827 C 258.627 107.534,258.327 106.440,255.772 104.018 C 254.089 102.423,253.930 101.949,254.751 100.995 C 256.122 99.400,259.375 101.127,259.375 103.449 C 259.375 103.885,259.475 104.241,259.598 104.241 C 259.721 104.241,259.821 103.793,259.821 103.244 C 259.821 100.681,255.919 98.849,254.373 100.687 M264.609 101.805 C 264.526 101.939,264.575 102.164,264.716 102.306 C 264.996 102.585,265.477 102.088,265.262 101.741 C 265.106 101.488,264.785 101.520,264.609 101.805 M262.578 105.078 C 262.196 105.661,261.071 107.365,260.079 108.865 C 259.088 110.365,258.371 111.650,258.487 111.722 C 258.687 111.845,263.616 104.632,263.616 104.216 C 263.616 103.763,263.232 104.082,262.578 105.078 M265.274 107.789 C 260.570 109.925,262.859 117.672,267.792 116.310 C 268.244 116.186,268.654 116.124,268.704 116.174 C 268.902 116.372,267.344 118.035,266.535 118.490 C 264.067 119.877,260.881 118.008,260.903 115.185 C 260.912 114.035,260.511 113.568,260.466 114.676 C 260.318 118.363,264.062 120.724,266.964 118.775 C 267.903 118.144,273.307 111.402,273.067 111.162 C 273.005 111.100,272.663 111.376,272.306 111.775 C 271.614 112.549,271.302 112.705,271.506 112.174 C 272.518 109.536,268.168 106.475,265.274 107.789 M268.703 108.237 C 270.350 109.082,271.348 110.772,271.092 112.286 C 270.322 116.848,264.185 117.143,263.182 112.667 C 262.490 109.580,265.934 106.817,268.703 108.237 M275.313 114.377 C 274.957 114.796,273.571 116.305,272.233 117.731 C 270.896 119.156,269.876 120.396,269.966 120.485 C 270.057 120.574,271.106 119.623,272.298 118.371 C 275.043 115.487,275.970 115.112,278.035 116.050 C 280.800 117.306,280.562 119.325,277.222 122.940 C 275.322 124.995,274.994 125.446,275.402 125.446 C 275.668 125.446,279.351 121.403,279.889 120.519 C 281.337 118.144,279.088 114.911,276.212 115.235 C 275.077 115.363,275.003 115.240,275.781 114.509 C 276.088 114.221,276.339 113.902,276.339 113.800 C 276.339 113.417,275.938 113.643,275.313 114.377 M287.527 124.489 C 285.750 125.364,285.605 126.685,286.969 129.557 C 288.121 131.982,288.206 133.060,287.313 133.894 C 284.803 136.239,280.626 132.629,282.191 129.467 C 282.806 128.224,282.664 127.787,281.943 128.704 C 279.600 131.683,284.041 136.778,287.186 134.717 C 288.698 133.726,288.782 132.399,287.514 129.546 C 286.174 126.533,286.427 125.097,288.372 124.670 C 290.747 124.148,293.217 127.872,291.741 129.748 C 291.214 130.419,291.187 130.580,291.604 130.580 C 291.774 130.580,292.068 130.344,292.257 130.055 C 294.091 127.257,290.496 123.026,287.527 124.489 M292.634 132.099 C 292.634 132.198,292.885 132.620,293.193 133.036 C 293.500 133.453,293.676 133.863,293.583 133.948 C 293.491 134.033,292.310 134.879,290.960 135.828 C 288.066 137.860,287.735 138.223,287.728 139.367 C 287.723 140.324,288.527 141.964,289.001 141.964 C 289.216 141.964,289.139 141.682,288.737 140.996 C 287.644 139.130,287.957 138.549,291.344 136.159 C 294.252 134.107,293.986 134.148,294.980 135.592 C 295.749 136.708,296.218 137.120,296.198 136.663 C 296.194 136.571,295.790 135.943,295.299 135.268 L 294.407 134.040 294.908 133.705 C 295.868 133.064,296.539 132.403,296.386 132.250 C 296.302 132.165,295.769 132.428,295.204 132.835 L 294.174 133.574 293.635 132.914 C 293.339 132.551,293.093 132.179,293.088 132.087 C 293.078 131.860,292.634 131.872,292.634 132.099 M294.922 140.026 C 293.663 140.785,292.334 141.689,291.969 142.035 C 289.610 144.265,291.396 148.497,294.685 148.471 C 295.807 148.463,301.071 145.782,301.297 145.104 C 301.433 144.697,301.025 144.837,299.652 145.672 C 295.301 148.315,294.164 148.566,292.664 147.210 C 290.183 144.969,290.943 142.968,295.230 140.453 C 297.590 139.069,298.178 138.595,297.489 138.631 C 297.335 138.639,296.180 139.267,294.922 140.026 M299.777 149.150 C 297.418 149.562,295.560 151.983,295.870 154.238 C 296.136 156.175,297.290 157.539,299.330 158.330 L 300.112 158.633 299.107 159.151 C 298.555 159.436,298.209 159.705,298.339 159.749 C 298.717 159.878,309.582 154.829,309.590 154.520 C 309.601 154.142,309.721 154.102,307.075 155.357 C 304.262 156.691,304.409 156.671,304.951 155.636 C 306.647 152.401,303.530 148.493,299.777 149.150 M302.609 149.988 C 303.818 150.537,304.687 151.881,304.834 153.429 C 305.245 157.765,299.190 159.696,296.985 155.932 C 294.852 152.294,298.710 148.217,302.609 149.988 M310.324 158.419 C 309.873 158.581,310.004 159.152,310.491 159.152 C 310.737 159.152,310.938 159.007,310.938 158.830 C 310.938 158.442,310.701 158.284,310.324 158.419 M303.589 161.126 C 301.450 161.943,299.659 162.737,299.608 162.891 C 299.498 163.225,299.257 163.302,304.185 161.433 C 306.303 160.630,308.036 159.889,308.036 159.786 C 308.036 159.464,307.587 159.599,303.589 161.126 M305.081 163.849 C 300.187 165.052,300.525 172.602,305.499 173.163 C 308.511 173.502,310.938 171.449,310.938 168.561 C 310.938 165.279,308.206 163.081,305.081 163.849 M308.259 164.629 C 311.029 166.038,311.256 170.254,308.654 171.941 C 305.669 173.877,302.009 171.935,302.009 168.415 C 302.009 165.262,305.429 163.190,308.259 164.629  M -25 0 L -5 0 L -5 20 L -25 20 Z M 405 0 L 425 0 L 425 20 L 405 20 Z" stroke="none" fill="#0f0f0f" fill-rule="evenodd" transform="translate(490,0)"></path><path id="path2" d="M117.012 173.256 C 116.803 173.465,116.741 179.443,116.741 199.482 L 116.741 225.438 117.243 225.560 C 117.520 225.628,121.161 225.655,125.335 225.620 L 132.924 225.558 132.982 215.677 L 133.040 205.796 139.009 205.856 L 144.978 205.915 145.036 215.677 L 145.094 225.439 145.594 225.561 C 145.869 225.628,149.459 225.655,153.571 225.620 L 161.049 225.558 161.049 199.330 L 161.049 173.103 153.125 173.103 L 145.201 173.103 145.089 182.589 L 144.978 192.076 139.063 192.076 L 133.147 192.076 133.036 182.589 L 132.924 173.103 125.103 173.044 C 119.207 173.000,117.216 173.052,117.012 173.256 M183.167 173.493 C 182.988 173.770,182.436 175.201,181.941 176.674 C 181.446 178.147,180.826 179.955,180.563 180.692 C 179.708 183.089,177.000 190.876,175.790 194.420 C 174.332 198.689,172.628 203.611,170.537 209.598 C 169.657 212.115,168.650 215.028,168.299 216.071 C 167.948 217.115,167.098 219.568,166.410 221.523 C 165.723 223.478,165.212 225.210,165.274 225.373 C 165.366 225.612,167.005 225.670,173.749 225.670 L 182.111 225.670 182.539 224.498 C 182.775 223.853,183.203 222.596,183.490 221.705 L 184.012 220.084 192.392 220.142 L 200.773 220.201 201.482 222.609 C 201.872 223.933,202.313 225.163,202.462 225.343 C 202.761 225.703,218.578 225.843,219.133 225.490 C 219.410 225.314,219.333 225.075,215.138 213.058 C 214.280 210.603,213.040 207.037,212.382 205.134 C 209.675 197.312,208.016 192.554,206.818 189.174 C 206.122 187.210,204.864 183.594,204.022 181.138 C 201.450 173.637,201.345 173.356,201.059 173.174 C 200.906 173.077,196.891 172.996,192.137 172.994 L 183.492 172.991 183.167 173.493 M223.363 173.140 C 223.281 173.222,223.214 185.022,223.214 199.363 L 223.214 225.438 223.717 225.560 C 223.993 225.627,230.396 225.654,237.946 225.620 L 251.674 225.558 251.733 218.877 C 251.779 213.684,251.730 212.154,251.510 212.007 C 251.355 211.903,248.917 211.829,246.094 211.843 C 243.270 211.856,240.583 211.859,240.123 211.849 L 239.286 211.830 239.286 192.411 L 239.286 172.991 231.399 172.991 C 227.061 172.991,223.445 173.058,223.363 173.140 M256.385 173.344 C 256.311 173.538,256.250 185.339,256.250 199.568 L 256.250 225.438 256.752 225.560 C 257.028 225.627,263.482 225.654,271.094 225.620 L 284.933 225.558 284.992 219.000 C 285.034 214.348,284.978 212.353,284.798 212.136 C 284.594 211.891,283.354 211.830,278.544 211.830 L 272.545 211.830 272.545 192.546 C 272.545 175.167,272.510 173.249,272.192 173.127 C 271.286 172.779,256.524 172.982,256.385 173.344 M190.182 176.530 C 193.186 178.128,192.080 182.492,188.637 182.627 C 185.320 182.757,184.139 177.949,187.126 176.476 C 188.077 176.007,189.237 176.027,190.182 176.530 M197.604 176.660 C 199.653 178.003,199.451 181.230,197.252 182.298 C 193.319 184.209,190.513 178.518,194.358 176.428 C 195.101 176.024,196.821 176.147,197.604 176.660 M126.276 176.712 C 127.763 177.418,128.434 179.259,127.805 180.907 C 126.722 183.742,122.510 183.474,121.694 180.518 C 120.946 177.811,123.726 175.502,126.276 176.712 M154.643 176.653 C 157.356 178.065,157.004 181.990,154.093 182.794 C 151.450 183.524,149.121 180.702,150.368 178.281 C 151.234 176.600,153.143 175.873,154.643 176.653 M232.585 176.730 C 235.600 178.245,234.610 182.830,231.256 182.881 C 229.290 182.910,227.901 181.569,227.903 179.643 C 227.905 177.240,230.449 175.657,232.585 176.730 M265.682 176.693 C 268.542 178.057,268.021 182.148,264.891 182.899 C 264.189 183.068,262.500 182.685,262.500 182.357 C 262.500 182.239,262.344 182.143,262.153 182.143 C 261.955 182.143,261.611 181.704,261.354 181.123 C 260.099 178.285,262.934 175.383,265.682 176.693 M188.476 183.449 C 190.882 185.666,189.601 189.286,186.411 189.286 C 184.453 189.286,183.259 188.024,183.259 185.957 C 183.259 183.323,186.597 181.718,188.476 183.449 M199.103 183.203 C 200.192 183.751,200.893 184.883,200.893 186.093 C 200.893 190.320,194.847 190.638,194.485 186.430 C 194.259 183.795,196.778 182.035,199.103 183.203 M126.585 184.658 C 129.242 186.434,128.127 190.625,124.998 190.625 C 122.859 190.625,121.654 189.455,121.653 187.376 C 121.651 184.749,124.429 183.218,126.585 184.658 M155.064 184.587 C 157.404 186.014,156.827 190.053,154.203 190.608 C 151.364 191.208,149.096 188.412,150.413 185.934 C 151.306 184.255,153.484 183.624,155.064 184.587 M232.930 184.602 C 234.281 185.437,234.760 187.402,234.002 188.999 C 232.613 191.927,227.908 190.767,227.903 187.497 C 227.899 184.811,230.679 183.210,232.930 184.602 M266.422 184.877 C 268.111 186.429,267.780 189.602,265.845 190.403 C 263.148 191.520,260.459 189.262,261.191 186.496 C 261.805 184.176,264.687 183.284,266.422 184.877 M185.700 189.948 C 187.156 190.691,187.897 192.789,187.185 194.152 C 185.469 197.437,181.138 196.533,181.138 192.889 C 181.138 190.111,183.294 188.721,185.700 189.948 M202.099 190.413 C 204.829 192.810,202.569 196.859,199.003 195.961 C 195.372 195.046,196.223 189.732,200.000 189.732 C 201.157 189.732,201.421 189.818,202.099 190.413 M126.563 192.474 C 127.731 193.092,128.229 194.211,128.009 195.725 C 127.438 199.651,121.650 199.161,121.653 195.187 C 121.655 192.520,124.098 191.170,126.563 192.474 M154.568 192.184 C 156.907 193.074,157.217 196.689,155.067 198.000 C 152.914 199.313,150.000 197.628,150.000 195.070 C 150.000 192.969,152.492 191.395,154.568 192.184 M192.654 192.913 C 192.797 193.435,193.246 194.967,193.652 196.317 C 195.248 201.626,196.652 206.552,196.652 206.840 C 196.652 207.174,188.074 207.306,187.870 206.975 C 187.813 206.883,188.359 204.749,189.084 202.232 C 189.809 199.715,190.771 196.376,191.222 194.810 C 192.118 191.697,192.266 191.502,192.654 192.913 M232.979 192.445 C 234.840 193.595,234.818 196.873,232.942 198.017 C 231.457 198.922,228.968 198.272,228.267 196.797 C 226.793 193.691,230.081 190.654,232.979 192.445 M266.451 192.620 C 267.252 193.212,267.747 194.728,267.506 195.846 C 266.660 199.752,261.075 199.061,261.075 195.050 C 261.075 192.472,264.288 191.020,266.451 192.620 M133.753 196.105 C 136.261 197.971,134.962 202.006,131.853 202.008 C 129.216 202.010,127.709 199.476,128.962 197.146 C 129.827 195.538,132.275 195.005,133.753 196.105 M141.203 196.180 C 143.683 198.125,142.327 202.046,139.174 202.046 C 135.971 202.046,134.700 198.015,137.291 196.075 C 138.286 195.330,140.184 195.381,141.203 196.180 M148.803 196.224 C 151.732 198.925,148.598 203.489,145.068 201.663 C 143.294 200.746,142.949 197.805,144.447 196.367 C 145.493 195.363,147.788 195.288,148.803 196.224 M183.873 196.924 C 186.580 199.453,184.394 203.653,180.882 202.669 C 178.081 201.885,177.786 197.719,180.446 196.511 C 181.427 196.066,183.179 196.277,183.873 196.924 M204.558 197.207 C 207.212 199.860,204.228 204.184,200.897 202.511 C 199.312 201.714,198.620 199.581,199.436 198.003 C 200.363 196.210,203.131 195.780,204.558 197.207 M126.339 200.019 C 127.853 200.599,128.570 203.447,127.553 204.839 C 125.253 207.984,120.181 205.099,121.904 201.625 C 122.784 199.851,124.387 199.270,126.339 200.019 M154.902 200.083 C 156.211 200.682,156.922 203.055,156.229 204.510 C 155.271 206.521,152.122 206.800,150.745 204.995 C 148.571 202.144,151.597 198.569,154.902 200.083 M232.204 199.821 C 235.512 200.813,234.746 206.245,231.297 206.249 C 227.417 206.254,226.605 200.893,230.317 199.773 C 231.153 199.520,231.203 199.521,232.204 199.821 M265.216 199.783 C 268.588 200.720,268.145 205.798,264.657 206.191 C 260.138 206.700,259.781 200.337,264.286 199.575 C 264.347 199.565,264.766 199.658,265.216 199.783 M181.249 203.495 C 182.703 204.354,183.208 206.680,182.248 208.093 C 179.885 211.571,174.750 208.408,176.685 204.667 C 177.417 203.250,179.800 202.639,181.249 203.495 M206.240 203.454 C 208.410 204.577,208.359 208.195,206.157 209.240 C 203.140 210.671,200.214 207.545,201.842 204.630 C 202.625 203.225,204.716 202.666,206.240 203.454 M126.563 207.868 C 128.802 209.397,128.527 212.737,126.081 213.716 C 122.241 215.252,119.759 209.951,123.306 207.788 C 124.255 207.210,125.648 207.244,126.563 207.868 M154.914 207.782 C 157.163 208.985,157.088 212.508,154.789 213.621 C 151.764 215.085,148.674 211.654,150.542 208.905 C 151.536 207.442,153.389 206.966,154.914 207.782 M233.170 208.054 C 236.161 210.848,232.961 215.515,229.393 213.562 C 227.404 212.473,227.481 208.882,229.518 207.760 C 230.562 207.185,232.398 207.333,233.170 208.054 M266.005 207.803 C 267.986 209.011,267.990 212.504,266.012 213.540 C 263.746 214.726,261.131 213.263,261.093 210.788 C 261.054 208.162,263.828 206.476,266.005 207.803 M178.793 210.236 C 179.879 210.818,180.656 212.329,180.473 213.504 C 179.891 217.251,174.381 217.233,173.976 213.483 C 173.683 210.772,176.389 208.947,178.793 210.236 M208.699 210.375 C 212.092 212.878,209.364 217.602,205.466 215.973 C 203.140 215.001,203.253 211.009,205.633 210.053 C 206.620 209.656,207.909 209.792,208.699 210.375 M185.922 210.436 C 188.111 211.552,188.415 214.521,186.495 216.032 C 185.035 217.180,182.764 216.718,181.802 215.076 C 180.118 212.204,183.007 208.950,185.922 210.436 M193.696 210.490 C 195.952 211.865,195.845 215.112,193.504 216.306 C 190.591 217.793,187.552 214.430,189.230 211.576 C 190.051 210.179,192.293 209.634,193.696 210.490 M201.498 210.483 C 202.977 211.385,203.490 213.364,202.664 214.983 C 201.503 217.261,198.000 217.168,196.869 214.831 C 195.450 211.901,198.746 208.805,201.498 210.483 M126.031 215.412 C 128.709 216.430,128.643 220.965,125.942 221.556 C 125.608 221.629,125.217 221.725,125.072 221.769 C 124.609 221.909,123.118 221.400,122.606 220.927 C 120.001 218.521,122.715 214.151,126.031 215.412 M154.672 215.505 C 157.749 217.096,156.742 221.713,153.318 221.713 C 150.866 221.713,149.308 219.271,150.354 217.067 C 151.109 215.477,153.173 214.730,154.672 215.505 M232.759 215.624 C 235.915 217.548,234.067 222.463,230.491 221.657 C 228.854 221.288,227.906 220.107,227.903 218.436 C 227.900 215.979,230.690 214.363,232.759 215.624 M240.823 215.856 C 243.805 218.016,241.732 222.427,238.117 221.615 C 236.507 221.253,235.714 220.176,235.714 218.351 C 235.714 215.700,238.637 214.272,240.823 215.856 M248.612 215.847 C 251.179 217.746,249.874 221.713,246.682 221.713 C 244.787 221.713,243.527 220.394,243.527 218.412 C 243.527 215.758,246.477 214.269,248.612 215.847 M265.852 215.586 C 267.538 216.468,268.037 218.804,266.898 220.475 C 265.385 222.694,261.512 221.711,261.052 218.993 C 260.612 216.389,263.487 214.348,265.852 215.586 M274.185 215.949 C 277.074 218.153,274.558 222.581,271.016 221.529 C 268.044 220.647,268.023 216.797,270.982 215.350 C 271.687 215.005,273.357 215.318,274.185 215.949 M281.100 215.483 C 282.965 216.262,283.665 218.643,282.527 220.332 C 281.492 221.867,279.188 222.179,277.812 220.971 C 274.976 218.481,277.639 214.037,281.100 215.483 M176.295 216.831 C 178.667 218.066,178.789 221.532,176.499 222.618 C 174.132 223.742,171.652 222.282,171.652 219.765 C 171.652 217.378,174.223 215.754,176.295 216.831 M210.924 216.926 C 211.889 217.444,212.500 218.576,212.500 219.849 C 212.500 223.538,207.046 224.234,206.062 220.670 C 205.297 217.902,208.354 215.548,210.924 216.926  M -25 0 L -5 0 L -5 20 L -25 20 Z M 405 0 L 425 0 L 425 20 L 405 20 Z" stroke="none" fill="#da852a" fill-rule="evenodd" transform="translate(950,0)"></path><path id="path3" d="M198.717 87.888 C 199.422 87.932,200.578 87.932,201.283 87.888 C 201.989 87.844,201.412 87.808,200.000 87.808 C 198.588 87.808,198.011 87.844,198.717 87.888 M192.578 88.104 C 192.854 88.157,193.306 88.157,193.583 88.104 C 193.859 88.051,193.633 88.007,193.080 88.007 C 192.528 88.007,192.302 88.051,192.578 88.104 M206.417 88.104 C 206.694 88.157,207.146 88.157,207.422 88.104 C 207.698 88.051,207.472 88.007,206.920 88.007 C 206.367 88.007,206.141 88.051,206.417 88.104 M194.255 89.892 C 194.595 89.944,195.097 89.942,195.371 89.889 C 195.646 89.836,195.368 89.794,194.754 89.796 C 194.141 89.798,193.916 89.841,194.255 89.892 M204.746 89.892 C 205.086 89.944,205.588 89.942,205.862 89.889 C 206.137 89.836,205.859 89.794,205.246 89.796 C 204.632 89.798,204.407 89.841,204.746 89.892 M190.904 90.109 C 191.119 90.165,191.470 90.165,191.685 90.109 C 191.900 90.053,191.724 90.007,191.295 90.007 C 190.865 90.007,190.689 90.053,190.904 90.109 M208.315 90.109 C 208.530 90.165,208.881 90.165,209.096 90.109 C 209.311 90.053,209.135 90.007,208.705 90.007 C 208.276 90.007,208.100 90.053,208.315 90.109 M246.931 95.466 C 247.146 95.523,247.497 95.523,247.712 95.466 C 247.927 95.410,247.751 95.364,247.321 95.364 C 246.892 95.364,246.716 95.410,246.931 95.466 M243.132 100.446 C 243.132 100.876,243.178 101.052,243.234 100.837 C 243.290 100.622,243.290 100.271,243.234 100.056 C 243.178 99.841,243.132 100.017,243.132 100.446 M255.636 99.931 C 255.851 99.987,256.203 99.987,256.417 99.931 C 256.632 99.875,256.456 99.829,256.027 99.829 C 255.597 99.829,255.421 99.875,255.636 99.931 M236.108 100.381 C 236.385 100.434,236.787 100.432,237.000 100.377 C 237.214 100.321,236.987 100.277,236.496 100.280 C 236.004 100.282,235.830 100.328,236.108 100.381 M264.500 101.685 C 264.261 101.973,264.283 102.096,264.627 102.411 C 265.020 102.770,265.026 102.769,264.741 102.390 C 264.526 102.106,264.508 101.921,264.678 101.751 C 264.970 101.459,265.468 101.722,265.259 102.059 C 265.168 102.207,265.214 102.237,265.378 102.135 C 265.584 102.008,265.585 101.895,265.385 101.654 C 265.050 101.250,264.855 101.257,264.500 101.685 M259.873 103.125 C 259.873 103.555,259.919 103.730,259.975 103.516 C 260.031 103.301,260.031 102.949,259.975 102.734 C 259.919 102.520,259.873 102.695,259.873 103.125 M254.688 103.906 C 255.104 104.336,255.495 104.688,255.556 104.688 C 255.618 104.688,255.327 104.336,254.911 103.906 C 254.494 103.477,254.103 103.125,254.042 103.125 C 253.981 103.125,254.271 103.477,254.688 103.906 M246.822 105.069 C 247.099 105.122,247.501 105.120,247.715 105.064 C 247.928 105.008,247.701 104.965,247.210 104.967 C 246.719 104.969,246.544 105.015,246.822 105.069 M266.685 107.970 C 266.961 108.023,267.414 108.023,267.690 107.970 C 267.966 107.917,267.740 107.873,267.188 107.873 C 266.635 107.873,266.409 107.917,266.685 107.970 M275.593 114.694 C 275.158 115.174,275.123 115.402,275.484 115.402 C 275.627 115.402,275.677 115.335,275.595 115.252 C 275.513 115.170,275.612 114.919,275.815 114.694 C 276.019 114.470,276.135 114.286,276.074 114.286 C 276.012 114.286,275.796 114.469,275.593 114.694 M274.095 115.569 L 273.326 116.406 274.163 115.637 C 274.942 114.921,275.103 114.732,274.932 114.732 C 274.895 114.732,274.518 115.109,274.095 115.569 M273.535 117.020 L 272.879 117.746 273.605 117.090 C 274.281 116.479,274.433 116.295,274.261 116.295 C 274.222 116.295,273.896 116.621,273.535 117.020 M260.938 117.481 C 260.938 117.519,261.264 117.845,261.663 118.206 L 262.388 118.862 261.733 118.136 C 261.122 117.460,260.938 117.308,260.938 117.481 M125.211 118.694 L 124.442 119.531 125.279 118.762 C 126.058 118.046,126.219 117.857,126.048 117.857 C 126.011 117.857,125.634 118.234,125.211 118.694 M270.982 118.862 C 270.440 119.414,270.047 119.866,270.108 119.866 C 270.169 119.866,270.663 119.414,271.205 118.862 C 271.748 118.309,272.141 117.857,272.080 117.857 C 272.018 117.857,271.524 118.309,270.982 118.862 M270.982 119.754 C 270.440 120.307,270.047 120.759,270.108 120.759 C 270.169 120.759,270.663 120.307,271.205 119.754 C 271.748 119.202,272.141 118.750,272.080 118.750 C 272.018 118.750,271.524 119.202,270.982 119.754 M264.230 119.577 C 264.506 119.630,264.958 119.630,265.234 119.577 C 265.511 119.524,265.285 119.480,264.732 119.480 C 264.180 119.480,263.954 119.524,264.230 119.577 M120.300 120.703 L 119.531 121.540 120.368 120.771 C 121.147 120.055,121.308 119.866,121.138 119.866 C 121.100 119.866,120.724 120.243,120.300 120.703 M121.089 122.600 L 119.085 124.665 121.150 122.661 C 123.067 120.799,123.316 120.536,123.154 120.536 C 123.121 120.536,122.191 121.465,121.089 122.600 M278.223 121.708 L 277.567 122.433 278.292 121.777 C 278.969 121.166,279.120 120.982,278.948 120.982 C 278.910 120.982,278.583 121.309,278.223 121.708 M278.005 122.824 L 276.897 123.996 278.069 122.888 C 278.714 122.279,279.241 121.751,279.241 121.716 C 279.241 121.549,279.034 121.735,278.005 122.824 M116.506 124.721 L 115.737 125.558 116.574 124.789 C 117.034 124.366,117.411 123.989,117.411 123.952 C 117.411 123.781,117.222 123.942,116.506 124.721 M275.560 124.551 C 275.209 124.918,274.964 125.254,275.016 125.298 C 275.069 125.341,275.398 125.041,275.747 124.630 C 276.537 123.703,276.420 123.654,275.560 124.551 M290.848 124.847 C 290.848 124.885,291.175 125.211,291.574 125.572 L 292.299 126.228 291.644 125.502 C 291.032 124.826,290.848 124.674,290.848 124.847 M117.737 126.172 L 116.629 127.344 117.801 126.236 C 118.446 125.627,118.973 125.100,118.973 125.064 C 118.973 124.898,118.766 125.083,117.737 126.172 M282.251 128.131 C 282.173 128.256,282.192 128.345,282.294 128.327 C 282.757 128.247,282.843 128.379,282.561 128.739 C 282.283 129.093,282.291 129.101,282.648 128.821 C 282.950 128.584,282.982 128.441,282.788 128.207 C 282.484 127.841,282.434 127.834,282.251 128.131 M112.366 129.520 C 111.388 130.648,111.097 131.027,111.211 131.027 C 111.276 131.027,111.701 130.575,112.153 130.022 C 112.992 128.999,113.158 128.606,112.366 129.520 M295.980 136.234 C 296.243 136.581,296.241 136.671,295.968 136.844 C 295.767 136.971,295.746 137.048,295.913 137.050 C 296.396 137.056,296.488 136.571,296.077 136.195 C 295.696 135.848,295.690 135.850,295.980 136.234 M287.552 139.509 C 287.552 139.939,287.598 140.114,287.654 139.900 C 287.710 139.685,287.710 139.333,287.654 139.118 C 287.598 138.903,287.552 139.079,287.552 139.509 M291.346 144.420 C 291.346 144.849,291.392 145.025,291.449 144.810 C 291.505 144.595,291.505 144.244,291.449 144.029 C 291.392 143.814,291.346 143.990,291.346 144.420 M300.783 144.864 C 300.702 144.995,300.802 145.024,301.032 144.936 C 301.341 144.818,301.385 144.873,301.253 145.218 C 301.128 145.546,301.152 145.586,301.351 145.388 C 301.620 145.122,301.468 144.643,301.116 144.643 C 301.008 144.643,300.858 144.742,300.783 144.864 M300.056 157.966 C 300.271 158.023,300.622 158.023,300.837 157.966 C 301.052 157.910,300.876 157.864,300.446 157.864 C 300.017 157.864,299.841 157.910,300.056 157.966 M301.400 168.304 C 301.400 168.856,301.444 169.082,301.497 168.806 C 301.550 168.530,301.550 168.078,301.497 167.801 C 301.444 167.525,301.400 167.751,301.400 168.304 M310.998 168.527 C 310.998 169.079,311.042 169.305,311.095 169.029 C 311.148 168.753,311.148 168.301,311.095 168.025 C 311.042 167.748,310.998 167.974,310.998 168.527 M305.750 172.703 C 306.028 172.756,306.430 172.754,306.643 172.698 C 306.857 172.642,306.629 172.598,306.138 172.601 C 305.647 172.603,305.473 172.649,305.750 172.703 M239.392 192.299 C 239.392 202.857,239.420 207.144,239.453 201.825 C 239.486 196.506,239.486 187.867,239.453 182.628 C 239.420 177.389,239.392 181.741,239.392 192.299 M309.040 174.938 C 309.286 174.999,309.637 175.163,309.821 175.303 C 310.113 175.525,310.116 175.507,309.850 175.167 C 309.681 174.953,309.330 174.788,309.069 174.803 C 308.618 174.827,308.616 174.834,309.040 174.938 M89.561 189.509 C 89.561 189.939,89.607 190.114,89.663 189.900 C 89.719 189.685,89.719 189.333,89.663 189.118 C 89.607 188.903,89.561 189.079,89.561 189.509 M310.320 189.509 C 310.320 189.939,310.366 190.114,310.422 189.900 C 310.478 189.685,310.478 189.333,310.422 189.118 C 310.366 188.903,310.320 189.079,310.320 189.509 M87.552 191.071 C 87.552 191.501,87.598 191.677,87.654 191.462 C 87.710 191.247,87.710 190.896,87.654 190.681 C 87.598 190.466,87.552 190.642,87.552 191.071 M312.329 191.071 C 312.329 191.501,312.375 191.677,312.431 191.462 C 312.487 191.247,312.487 190.896,312.431 190.681 C 312.375 190.466,312.329 190.642,312.329 191.071 M89.338 192.188 C 89.338 192.617,89.383 192.793,89.440 192.578 C 89.496 192.363,89.496 192.012,89.440 191.797 C 89.383 191.582,89.338 191.758,89.338 192.188 M310.543 192.188 C 310.543 192.617,310.589 192.793,310.645 192.578 C 310.701 192.363,310.701 192.012,310.645 191.797 C 310.589 191.582,310.543 191.758,310.543 192.188 M87.338 194.420 C 87.338 194.972,87.381 195.198,87.434 194.922 C 87.488 194.646,87.488 194.194,87.434 193.917 C 87.381 193.641,87.338 193.867,87.338 194.420 M312.561 194.420 C 312.561 194.972,312.604 195.198,312.658 194.922 C 312.711 194.646,312.711 194.194,312.658 193.917 C 312.604 193.641,312.561 193.867,312.561 194.420 M89.134 195.982 C 89.134 196.780,89.174 197.107,89.224 196.708 C 89.273 196.309,89.273 195.656,89.224 195.257 C 89.174 194.858,89.134 195.184,89.134 195.982 M310.788 196.094 C 310.789 196.953,310.829 197.277,310.877 196.814 C 310.926 196.351,310.925 195.648,310.875 195.252 C 310.826 194.855,310.787 195.234,310.788 196.094 M87.140 200.893 C 87.140 202.427,87.175 203.055,87.219 202.288 C 87.262 201.521,87.262 200.265,87.219 199.498 C 87.175 198.730,87.140 199.358,87.140 200.893 M312.809 200.893 C 312.809 202.427,312.845 203.055,312.888 202.288 C 312.932 201.521,312.932 200.265,312.888 199.498 C 312.845 198.730,312.809 199.358,312.809 200.893 M89.132 205.246 C 89.133 205.982,89.175 206.257,89.224 205.855 C 89.274 205.454,89.273 204.852,89.222 204.516 C 89.171 204.181,89.130 204.509,89.132 205.246 M310.783 205.246 C 310.785 205.982,310.826 206.257,310.876 205.855 C 310.926 205.454,310.925 204.852,310.874 204.516 C 310.823 204.181,310.782 204.509,310.783 205.246 M87.341 207.031 C 87.342 207.645,87.386 207.870,87.437 207.530 C 87.488 207.191,87.487 206.689,87.434 206.414 C 87.381 206.140,87.339 206.417,87.341 207.031 M312.564 207.031 C 312.566 207.645,312.609 207.870,312.660 207.530 C 312.711 207.191,312.710 206.689,312.657 206.414 C 312.604 206.140,312.562 206.417,312.564 207.031 M190.458 207.085 C 191.286 207.128,192.642 207.128,193.471 207.085 C 194.300 207.042,193.622 207.007,191.964 207.007 C 190.307 207.007,189.629 207.042,190.458 207.085 M89.342 209.040 C 89.344 209.531,89.390 209.706,89.444 209.428 C 89.497 209.151,89.495 208.749,89.439 208.535 C 89.383 208.322,89.340 208.549,89.342 209.040 M310.547 209.040 C 310.550 209.531,310.596 209.706,310.649 209.428 C 310.702 209.151,310.700 208.749,310.644 208.535 C 310.589 208.322,310.545 208.549,310.547 209.040 M312.329 210.045 C 312.329 210.474,312.375 210.650,312.431 210.435 C 312.487 210.220,312.487 209.869,312.431 209.654 C 312.375 209.439,312.329 209.615,312.329 210.045 M89.561 211.830 C 89.561 212.260,89.607 212.436,89.663 212.221 C 89.719 212.006,89.719 211.655,89.663 211.440 C 89.607 211.225,89.561 211.401,89.561 211.830 M310.320 211.830 C 310.320 212.260,310.366 212.436,310.422 212.221 C 310.478 212.006,310.478 211.655,310.422 211.440 C 310.366 211.225,310.320 211.401,310.320 211.830 M114.509 274.400 C 114.509 274.439,114.835 274.765,115.234 275.126 L 115.960 275.781 115.304 275.056 C 114.693 274.380,114.509 274.228,114.509 274.400 M284.696 275.056 L 284.040 275.781 284.766 275.126 C 285.442 274.515,285.594 274.330,285.421 274.330 C 285.383 274.330,285.056 274.657,284.696 275.056 M117.411 274.847 C 117.411 274.885,117.737 275.211,118.136 275.572 L 118.862 276.228 118.206 275.502 C 117.595 274.826,117.411 274.674,117.411 274.847 M281.794 275.502 L 281.138 276.228 281.864 275.572 C 282.540 274.961,282.692 274.777,282.519 274.777 C 282.481 274.777,282.155 275.103,281.794 275.502 M117.076 277.232 C 117.681 277.846,118.225 278.348,118.287 278.348 C 118.348 278.348,117.904 277.846,117.299 277.232 C 116.694 276.618,116.150 276.116,116.088 276.116 C 116.027 276.116,116.471 276.618,117.076 277.232 M282.693 277.288 L 281.585 278.460 282.757 277.352 C 283.401 276.743,283.929 276.216,283.929 276.180 C 283.929 276.014,283.722 276.199,282.693 277.288 M125.000 282.478 C 125.416 282.907,125.807 283.259,125.869 283.259 C 125.930 283.259,125.640 282.907,125.223 282.478 C 124.807 282.048,124.416 281.696,124.354 281.696 C 124.293 281.696,124.584 282.048,125.000 282.478 M274.765 282.533 L 273.996 283.371 274.833 282.601 C 275.293 282.178,275.670 281.802,275.670 281.764 C 275.670 281.594,275.481 281.754,274.765 282.533 M123.326 283.482 C 123.805 283.973,124.248 284.375,124.309 284.375 C 124.371 284.375,124.029 283.973,123.549 283.482 C 123.070 282.991,122.627 282.589,122.566 282.589 C 122.504 282.589,122.846 282.991,123.326 283.482 M276.440 283.538 L 275.558 284.487 276.507 283.604 C 277.389 282.784,277.558 282.589,277.389 282.589 C 277.353 282.589,276.926 283.016,276.440 283.538 M125.000 284.891 C 125.000 284.930,125.326 285.256,125.725 285.617 L 126.451 286.272 125.795 285.547 C 125.184 284.871,125.000 284.719,125.000 284.891 M274.205 285.547 L 273.549 286.272 274.275 285.617 C 274.951 285.006,275.103 284.821,274.930 284.821 C 274.892 284.821,274.565 285.148,274.205 285.547 M191.018 311.319 C 191.296 311.372,191.698 311.370,191.911 311.314 C 192.124 311.258,191.897 311.215,191.406 311.217 C 190.915 311.219,190.741 311.265,191.018 311.319 M208.206 311.319 C 208.483 311.372,208.885 311.370,209.099 311.314 C 209.312 311.258,209.085 311.215,208.594 311.217 C 208.103 311.219,207.928 311.265,208.206 311.319 M195.480 311.547 C 196.002 311.594,196.855 311.594,197.377 311.547 C 197.899 311.500,197.472 311.462,196.429 311.462 C 195.385 311.462,194.958 311.500,195.480 311.547 M202.623 311.547 C 203.145 311.594,203.998 311.594,204.520 311.547 C 205.042 311.500,204.615 311.462,203.571 311.462 C 202.528 311.462,202.101 311.500,202.623 311.547 M190.346 313.104 C 190.622 313.157,191.074 313.157,191.350 313.104 C 191.627 313.051,191.401 313.007,190.848 313.007 C 190.296 313.007,190.070 313.051,190.346 313.104 M208.650 313.104 C 208.926 313.157,209.378 313.157,209.654 313.104 C 209.930 313.051,209.704 313.007,209.152 313.007 C 208.599 313.007,208.373 313.051,208.650 313.104 M193.583 313.330 C 193.920 313.381,194.473 313.381,194.810 313.330 C 195.148 313.278,194.872 313.237,194.196 313.237 C 193.521 313.237,193.245 313.278,193.583 313.330 M205.190 313.330 C 205.527 313.381,206.080 313.381,206.417 313.330 C 206.755 313.278,206.479 313.237,205.804 313.237 C 205.128 313.237,204.852 313.278,205.190 313.330  M -25 0 L -5 0 L -5 20 L -25 20 Z M 405 0 L 425 0 L 425 20 L 405 20 Z" stroke="none" fill="#999999" fill-rule="evenodd" transform="translate(30,460)"></path><path id="path4" d="M240.179 89.579 C 240.179 89.617,240.505 89.944,240.904 90.304 L 241.629 90.960 240.974 90.234 C 240.363 89.558,240.179 89.406,240.179 89.579 M196.264 89.892 C 196.604 89.944,197.106 89.942,197.380 89.889 C 197.655 89.836,197.377 89.794,196.763 89.796 C 196.150 89.798,195.925 89.841,196.264 89.892 M202.737 89.892 C 203.077 89.944,203.579 89.942,203.854 89.889 C 204.128 89.836,203.850 89.794,203.237 89.796 C 202.623 89.798,202.398 89.841,202.737 89.892 M160.882 172.916 C 161.103 173.005,161.161 178.501,161.161 199.346 L 161.161 225.664 153.292 225.726 L 145.424 225.787 153.402 225.840 L 161.380 225.893 161.438 199.444 C 161.497 172.414,161.504 172.697,160.752 172.785 C 160.670 172.795,160.728 172.854,160.882 172.916 M116.626 199.330 C 116.626 213.878,116.653 219.830,116.685 212.556 C 116.718 205.282,116.718 193.379,116.685 186.105 C 116.653 178.831,116.626 184.782,116.626 199.330 M133.144 182.478 L 133.147 192.076 139.063 192.076 L 144.978 192.076 144.983 182.478 L 144.987 172.879 144.871 182.366 L 144.754 191.853 139.009 191.912 L 133.264 191.972 133.202 182.426 L 133.140 172.879 133.144 182.478 M201.851 174.895 C 202.217 175.942,202.550 176.765,202.592 176.724 C 202.710 176.606,201.484 172.991,201.326 172.991 C 201.249 172.991,201.485 173.848,201.851 174.895 M223.099 199.330 C 223.099 213.878,223.126 219.830,223.158 212.556 C 223.191 205.282,223.191 193.379,223.158 186.105 C 223.126 178.831,223.099 184.782,223.099 199.330 M272.599 192.355 L 272.545 211.830 273.828 211.789 L 275.112 211.748 273.941 211.666 L 272.770 211.584 272.712 192.232 L 272.654 172.879 272.599 192.355 M182.510 174.389 C 181.991 175.748,182.076 176.007,182.609 174.692 C 182.852 174.092,183.012 173.563,182.964 173.515 C 182.916 173.467,182.712 173.860,182.510 174.389 M181.722 176.584 C 181.585 176.977,181.480 177.409,181.489 177.544 C 181.498 177.680,181.649 177.397,181.825 176.917 C 182.001 176.436,182.106 176.004,182.058 175.957 C 182.010 175.909,181.859 176.192,181.722 176.584 M187.120 176.479 C 186.727 176.672,186.236 177.097,186.029 177.422 L 185.653 178.013 186.297 177.427 C 189.459 174.550,193.810 178.700,190.704 181.630 C 190.081 182.218,190.029 182.325,190.438 182.173 C 191.073 181.938,191.966 180.297,191.961 179.373 C 191.948 177.057,189.236 175.435,187.120 176.479 M195.089 176.202 C 195.089 176.250,195.391 176.333,195.759 176.387 C 196.127 176.441,196.429 176.402,196.429 176.301 C 196.429 176.199,196.127 176.116,195.759 176.116 C 195.391 176.116,195.089 176.155,195.089 176.202 M123.538 176.653 C 122.602 177.061,121.648 178.250,121.671 178.979 L 121.690 179.576 121.863 179.005 C 122.727 176.158,125.932 175.720,127.486 178.237 C 127.714 178.605,127.900 178.806,127.900 178.683 C 127.900 177.117,125.277 175.896,123.538 176.653 M152.333 176.491 C 151.509 176.655,149.944 178.367,150.296 178.719 C 150.356 178.779,150.467 178.635,150.542 178.398 C 151.142 176.508,153.940 176.053,155.482 177.595 C 155.904 178.017,156.250 178.278,156.250 178.174 C 156.250 177.923,155.147 176.905,154.535 176.590 C 154.058 176.345,153.250 176.309,152.333 176.491 M193.973 176.629 C 193.789 176.781,193.439 177.154,193.195 177.459 C 192.755 178.010,192.757 178.010,193.419 177.429 C 193.785 177.108,194.286 176.735,194.531 176.599 C 194.838 176.430,194.873 176.353,194.643 176.353 C 194.459 176.353,194.157 176.477,193.973 176.629 M197.268 176.785 C 197.668 177.028,198.195 177.555,198.439 177.956 C 198.683 178.356,198.882 178.583,198.882 178.460 C 198.880 177.801,197.510 176.359,196.875 176.347 C 196.691 176.344,196.868 176.541,197.268 176.785 M230.859 176.493 C 231.074 176.549,231.426 176.549,231.641 176.493 C 231.855 176.437,231.680 176.391,231.250 176.391 C 230.820 176.391,230.645 176.437,230.859 176.493 M263.047 176.653 C 260.957 177.563,260.324 180.640,261.963 181.916 C 262.376 182.237,262.376 182.233,261.991 181.779 C 260.388 179.893,261.563 176.959,264.054 176.625 C 265.171 176.475,266.609 177.327,267.084 178.418 C 267.254 178.809,267.397 178.985,267.402 178.808 C 267.446 177.208,264.790 175.894,263.047 176.653 M229.308 177.000 C 226.767 178.549,227.743 182.394,230.804 182.891 C 231.420 182.992,231.364 182.948,230.540 182.684 C 227.784 181.800,227.222 178.296,229.633 177.024 C 230.093 176.781,230.368 176.578,230.246 176.573 C 230.123 176.568,229.701 176.760,229.308 177.000 M232.669 176.986 C 234.725 178.342,234.626 181.422,232.495 182.389 C 231.994 182.617,231.764 182.805,231.983 182.808 C 233.683 182.829,234.967 179.918,234.045 178.134 C 233.692 177.452,232.691 176.562,232.280 176.564 C 232.143 176.565,232.318 176.755,232.669 176.986 M180.701 179.584 C 180.486 180.147,180.359 180.657,180.420 180.718 C 180.481 180.778,180.692 180.353,180.889 179.773 C 181.356 178.404,181.208 178.256,180.701 179.584 M127.954 179.688 C 127.954 180.117,128.000 180.293,128.056 180.078 C 128.112 179.863,128.112 179.512,128.056 179.297 C 128.000 179.082,127.954 179.258,127.954 179.688 M150.052 179.688 C 150.052 180.117,150.098 180.293,150.154 180.078 C 150.210 179.863,150.210 179.512,150.154 179.297 C 150.098 179.082,150.052 179.258,150.052 179.688 M267.441 179.696 C 267.424 180.008,267.211 180.654,266.968 181.132 C 266.724 181.610,266.562 182.038,266.607 182.083 C 266.802 182.278,267.658 180.102,267.569 179.639 C 267.477 179.158,267.470 179.161,267.441 179.696 M185.520 179.988 C 185.468 181.121,186.967 182.621,188.103 182.572 C 188.324 182.562,188.085 182.406,187.573 182.224 C 186.572 181.869,185.909 181.095,185.688 180.022 L 185.550 179.353 185.520 179.988 M203.630 179.911 C 203.924 180.984,205.880 186.382,205.950 186.312 C 206.053 186.209,204.051 180.371,203.754 179.911 C 203.562 179.613,203.548 179.613,203.630 179.911 M156.168 180.601 C 156.092 180.981,155.703 181.599,155.303 181.975 C 154.903 182.351,154.778 182.552,155.025 182.421 C 155.878 181.971,157.020 179.911,156.417 179.911 C 156.356 179.911,156.244 180.221,156.168 180.601 M192.656 180.224 C 192.633 180.661,193.711 182.256,193.901 182.067 C 193.959 182.009,193.773 181.694,193.487 181.368 C 193.202 181.042,192.903 180.555,192.824 180.287 C 192.698 179.866,192.675 179.858,192.656 180.224 M121.658 180.357 C 121.634 182.299,124.851 183.584,126.650 182.352 C 127.376 181.854,128.047 180.875,127.819 180.646 C 127.764 180.592,127.653 180.755,127.572 181.010 C 126.883 183.183,123.079 183.145,122.086 180.956 C 121.852 180.443,121.660 180.173,121.658 180.357 M198.661 180.355 C 198.661 180.517,198.406 180.984,198.094 181.393 C 197.783 181.801,197.669 182.081,197.843 182.014 C 198.247 181.859,199.026 180.425,198.818 180.217 C 198.732 180.130,198.661 180.192,198.661 180.355 M150.224 180.658 C 150.222 181.074,150.988 182.102,151.537 182.422 C 152.234 182.827,153.875 183.196,153.348 182.829 C 153.164 182.701,152.834 182.595,152.615 182.593 C 152.024 182.588,151.109 181.919,150.639 181.148 C 150.411 180.774,150.225 180.554,150.224 180.658 M180.022 181.473 C 179.939 181.737,179.920 182.004,179.982 182.065 C 180.043 182.126,180.162 181.960,180.246 181.696 C 180.329 181.432,180.348 181.166,180.286 181.105 C 180.225 181.043,180.106 181.209,180.022 181.473 M262.500 182.375 C 262.500 183.033,265.761 183.049,266.166 182.393 C 266.229 182.292,265.827 182.358,265.273 182.540 C 264.374 182.836,264.170 182.835,263.383 182.525 C 262.897 182.335,262.500 182.267,262.500 182.375 M184.922 183.126 C 184.148 183.464,183.557 184.257,183.385 185.189 C 183.276 185.778,183.286 185.772,183.514 185.115 C 184.368 182.659,187.626 182.305,189.080 184.510 C 189.314 184.865,189.507 185.044,189.507 184.907 C 189.516 183.456,186.688 182.357,184.922 183.126 M196.298 183.130 C 194.939 183.722,194.206 185.286,194.515 186.936 C 194.685 187.841,195.959 189.292,196.567 189.272 C 196.959 189.258,196.957 189.245,196.540 189.072 C 193.513 187.811,194.290 183.599,197.656 183.022 L 198.549 182.868 197.768 182.849 C 197.338 182.839,196.677 182.965,196.298 183.130 M179.044 184.401 C 178.786 185.166,178.613 185.830,178.660 185.877 C 178.707 185.924,178.957 185.337,179.215 184.572 C 179.473 183.807,179.646 183.143,179.599 183.096 C 179.552 183.049,179.302 183.636,179.044 184.401 M199.239 183.458 C 199.618 183.689,200.145 184.317,200.411 184.852 C 200.676 185.388,200.893 185.695,200.893 185.536 C 200.893 184.727,199.474 183.034,198.798 183.037 C 198.661 183.037,198.859 183.227,199.239 183.458 M123.201 184.519 C 122.474 184.970,121.646 186.170,121.672 186.733 C 121.685 187.008,121.764 186.919,121.889 186.487 C 122.146 185.605,123.124 184.690,124.107 184.413 C 124.752 184.231,124.791 184.190,124.330 184.178 C 124.023 184.170,123.515 184.323,123.201 184.519 M125.740 184.475 C 127.356 185.052,128.090 186.369,127.767 188.117 C 127.241 190.964,123.154 191.244,121.966 188.516 C 121.803 188.141,121.666 187.985,121.661 188.170 C 121.613 190.236,125.173 191.439,126.887 189.935 C 129.007 188.073,127.907 184.098,125.290 184.162 C 125.069 184.167,125.272 184.308,125.740 184.475 M151.562 184.654 C 149.243 186.237,149.739 189.954,152.344 190.512 C 152.894 190.630,152.847 190.576,152.082 190.212 C 149.461 188.966,149.790 185.222,152.594 184.383 C 153.092 184.234,153.131 184.186,152.767 184.171 C 152.509 184.160,151.967 184.378,151.562 184.654 M154.163 184.396 C 154.998 184.638,156.239 185.974,156.276 186.671 C 156.294 187.025,156.330 187.058,156.401 186.790 C 156.649 185.851,155.004 184.125,153.906 184.173 C 153.616 184.185,153.705 184.263,154.163 184.396 M229.009 184.989 C 228.415 185.551,228.084 186.083,228.003 186.607 L 227.881 187.388 228.216 186.496 C 229.438 183.232,233.708 183.784,234.156 187.263 C 234.313 188.475,234.317 188.481,234.346 187.534 C 234.436 184.538,231.144 182.968,229.009 184.989 M262.612 184.563 C 261.794 185.063,261.486 185.433,261.282 186.161 C 261.140 186.669,261.165 186.659,261.558 186.049 C 262.180 185.084,262.825 184.570,263.663 184.372 C 264.283 184.225,264.310 184.194,263.839 184.175 C 263.532 184.163,262.980 184.338,262.612 184.563 M264.968 184.363 C 266.032 184.686,266.513 185.056,266.953 185.889 C 267.243 186.438,267.394 186.578,267.401 186.302 C 267.417 185.620,265.785 184.149,265.037 184.171 L 264.397 184.190 264.968 184.363 M189.543 185.826 C 189.521 186.194,189.447 186.747,189.379 187.054 C 189.272 187.534,189.290 187.556,189.507 187.217 C 189.645 187.000,189.719 186.448,189.671 185.989 C 189.596 185.270,189.578 185.248,189.543 185.826 M183.279 186.462 C 183.226 187.556,184.755 189.305,185.741 189.277 C 185.910 189.272,185.748 189.134,185.379 188.971 C 184.478 188.570,183.788 187.776,183.520 186.830 C 183.399 186.401,183.290 186.235,183.279 186.462 M200.484 187.367 C 200.292 187.901,199.892 188.343,199.262 188.720 C 198.747 189.029,198.461 189.282,198.626 189.284 C 199.422 189.289,201.063 187.452,200.845 186.799 C 200.804 186.676,200.642 186.932,200.484 187.367 M177.482 188.866 C 177.102 190.000,176.826 190.963,176.869 191.006 C 176.913 191.050,177.269 190.167,177.661 189.045 C 178.053 187.922,178.328 186.959,178.273 186.904 C 178.218 186.849,177.862 187.732,177.482 188.866 M267.298 187.954 C 267.100 189.125,266.280 190.079,265.233 190.357 C 264.689 190.501,264.569 190.587,264.889 190.602 C 266.134 190.660,267.222 189.543,267.528 187.891 C 267.614 187.430,267.631 187.054,267.567 187.054 C 267.503 187.054,267.381 187.459,267.298 187.954 M156.272 188.080 C 156.144 188.545,156.079 188.966,156.128 189.015 C 156.177 189.064,156.323 188.724,156.451 188.259 C 156.579 187.794,156.644 187.373,156.595 187.324 C 156.546 187.275,156.401 187.615,156.272 188.080 M188.393 188.426 C 187.963 188.803,187.814 189.009,188.061 188.884 C 188.468 188.678,189.479 187.711,189.265 187.732 C 189.215 187.737,188.823 188.050,188.393 188.426 M227.921 188.071 C 227.910 188.324,228.060 188.726,228.253 188.964 C 228.446 189.202,228.536 189.264,228.452 189.101 C 228.369 188.938,228.219 188.536,228.120 188.208 C 227.976 187.729,227.936 187.702,227.921 188.071 M233.498 189.343 C 233.200 189.710,232.648 190.145,232.271 190.309 C 231.893 190.473,231.715 190.611,231.875 190.616 C 232.399 190.632,233.409 189.989,233.802 189.389 C 234.340 188.568,234.150 188.539,233.498 189.343 M155.166 189.848 C 154.877 190.152,154.734 190.402,154.848 190.402 C 154.963 190.402,155.292 190.151,155.580 189.844 C 155.869 189.537,156.012 189.287,155.898 189.290 C 155.785 189.292,155.455 189.543,155.166 189.848 M206.920 189.346 C 206.920 189.656,208.767 194.655,208.851 194.572 C 208.901 194.521,208.538 193.345,208.043 191.957 C 207.231 189.681,206.920 188.957,206.920 189.346 M261.838 189.630 C 262.264 190.143,263.290 190.629,263.884 190.599 C 264.333 190.576,264.341 190.561,263.951 190.475 C 263.164 190.302,262.277 189.907,262.277 189.729 C 262.277 189.634,262.112 189.493,261.910 189.416 C 261.598 189.296,261.587 189.328,261.838 189.630 M182.701 189.924 C 181.718 190.531,181.271 191.116,181.131 191.979 L 181.006 192.746 181.326 191.906 C 182.090 189.900,183.967 189.145,185.646 190.169 C 188.256 191.760,187.542 195.329,184.487 195.962 L 183.371 196.193 184.476 196.086 C 185.661 195.971,186.577 195.317,187.185 194.152 C 188.536 191.565,185.175 188.396,182.701 189.924 M228.571 189.602 C 228.571 189.820,230.110 190.624,230.495 190.607 C 230.771 190.596,230.685 190.509,230.246 190.355 C 229.877 190.226,229.417 189.983,229.223 189.815 C 228.879 189.516,228.571 189.416,228.571 189.602 M197.901 190.413 C 197.069 191.144,196.560 192.313,196.717 193.132 C 196.800 193.566,196.819 193.550,196.845 193.017 C 196.921 191.454,197.817 190.315,199.230 189.984 C 200.099 189.780,200.101 189.777,199.394 189.755 C 198.891 189.739,198.444 189.936,197.901 190.413 M201.279 190.170 C 201.824 190.418,202.413 190.911,202.673 191.337 C 202.921 191.744,203.124 191.939,203.124 191.771 C 203.126 191.250,201.437 189.732,200.863 189.737 C 200.448 189.741,200.536 189.833,201.279 190.170 M123.274 192.295 C 122.554 192.608,121.654 193.787,121.653 194.420 C 121.652 194.604,121.856 194.342,122.106 193.838 C 122.607 192.825,123.270 192.414,124.777 192.180 L 125.781 192.024 124.888 192.003 C 124.397 191.991,123.671 192.123,123.274 192.295 M151.802 192.355 C 151.013 192.757,150.040 193.865,150.272 194.097 C 150.344 194.169,150.584 193.921,150.805 193.546 C 151.532 192.316,153.420 191.820,154.743 192.510 C 155.081 192.687,155.357 192.746,155.357 192.643 C 155.357 191.991,152.905 191.793,151.802 192.355 M191.657 193.332 C 191.448 194.084,191.327 194.749,191.387 194.810 C 191.448 194.871,191.616 194.451,191.761 193.876 C 191.944 193.149,192.116 192.868,192.329 192.949 C 192.659 193.076,192.712 192.875,192.498 192.317 C 192.256 191.685,192.044 191.940,191.657 193.332 M229.616 192.296 C 228.967 192.634,228.146 193.487,228.132 193.836 C 228.128 193.945,228.335 193.767,228.591 193.441 C 230.624 190.857,234.457 192.364,234.075 195.597 C 233.622 199.417,228.652 199.089,228.093 195.201 L 227.933 194.085 227.991 195.370 C 228.185 199.585,234.375 199.421,234.375 195.201 C 234.375 192.734,231.795 191.159,229.616 192.296 M264.397 192.156 C 268.426 192.735,268.426 197.718,264.397 198.232 L 263.281 198.375 264.241 198.406 C 267.235 198.504,268.713 194.849,266.526 192.754 C 265.972 192.222,265.639 192.103,264.570 192.054 L 263.281 191.995 264.397 192.156 M126.482 192.617 C 127.350 193.146,127.473 193.342,127.814 194.746 C 128.009 195.549,128.092 195.693,128.106 195.250 C 128.144 194.010,126.907 192.185,126.030 192.188 C 125.893 192.189,126.097 192.382,126.482 192.617 M203.177 192.857 C 203.177 193.287,203.223 193.463,203.279 193.248 C 203.335 193.033,203.335 192.681,203.279 192.467 C 203.223 192.252,203.177 192.427,203.177 192.857 M175.244 195.333 C 174.732 196.826,174.367 198.102,174.433 198.168 C 174.499 198.234,174.554 198.242,174.554 198.185 C 174.554 198.128,174.958 196.892,175.451 195.437 C 175.945 193.983,176.310 192.753,176.262 192.705 C 176.214 192.657,175.755 193.840,175.244 195.333 M155.587 193.025 C 155.591 193.117,155.742 193.387,155.922 193.625 C 156.103 193.864,156.264 194.316,156.280 194.630 C 156.307 195.133,156.322 195.143,156.406 194.714 C 156.458 194.446,156.341 193.919,156.146 193.542 C 155.807 192.886,155.572 192.669,155.587 193.025 M181.138 193.750 C 181.251 194.548,182.516 195.990,183.088 195.974 C 183.244 195.970,183.153 195.844,182.887 195.695 C 182.265 195.347,181.487 194.353,181.229 193.577 C 181.047 193.030,181.038 193.048,181.138 193.750 M196.876 194.025 C 196.875 194.553,197.976 195.691,198.661 195.870 C 199.138 195.996,199.114 195.950,198.491 195.555 C 198.091 195.301,197.564 194.766,197.320 194.366 C 197.029 193.889,196.876 193.772,196.876 194.025 M202.636 194.420 C 202.428 194.783,201.926 195.283,201.520 195.530 C 200.669 196.049,200.837 196.138,201.764 195.659 C 202.420 195.320,203.203 194.314,203.083 193.965 C 203.045 193.852,202.843 194.057,202.636 194.420 M192.891 194.420 C 192.891 194.604,193.026 195.106,193.192 195.536 C 193.357 195.965,193.493 196.166,193.493 195.982 C 193.493 195.798,193.357 195.296,193.192 194.866 C 193.026 194.436,192.891 194.235,192.891 194.420 M150.028 195.093 C 149.939 197.590,152.919 199.310,155.067 198.000 C 155.765 197.574,156.482 196.517,156.464 195.937 C 156.460 195.778,156.319 195.961,156.153 196.344 C 154.832 199.377,150.768 198.596,150.204 195.201 L 150.056 194.308 150.028 195.093 M121.675 195.785 C 121.645 196.550,122.897 198.185,123.530 198.207 C 123.643 198.211,123.359 197.888,122.899 197.489 C 122.387 197.045,121.991 196.460,121.880 195.982 C 121.725 195.317,121.694 195.288,121.675 195.785 M130.075 195.946 C 129.418 196.379,128.813 197.076,128.802 197.414 C 128.798 197.527,129.121 197.254,129.520 196.808 C 129.919 196.362,130.597 195.903,131.027 195.787 C 131.670 195.613,131.710 195.573,131.250 195.557 C 130.943 195.547,130.414 195.722,130.075 195.946 M132.647 195.835 C 134.123 196.397,134.522 196.954,134.826 198.884 L 134.985 199.888 135.015 198.929 C 135.065 197.310,134.000 195.872,132.579 195.641 L 131.808 195.515 132.647 195.835 M137.289 196.118 C 136.908 196.438,136.493 196.915,136.367 197.178 C 136.224 197.475,136.325 197.412,136.634 197.014 C 136.908 196.661,137.542 196.186,138.042 195.958 C 138.698 195.661,138.816 195.544,138.466 195.541 C 138.199 195.538,137.669 195.798,137.289 196.118 M147.922 195.950 C 150.529 197.190,150.200 201.153,147.433 201.845 C 147.052 201.941,147.046 201.961,147.388 201.983 C 150.499 202.184,150.748 196.310,147.656 195.649 C 147.109 195.531,147.157 195.586,147.922 195.950 M141.285 196.617 C 141.834 197.139,142.188 197.679,142.188 197.994 C 142.188 198.279,142.250 198.450,142.326 198.373 C 142.726 197.974,141.241 195.759,140.573 195.759 C 140.469 195.759,140.789 196.145,141.285 196.617 M144.873 195.973 C 144.692 196.088,144.599 196.236,144.666 196.303 C 144.732 196.369,144.981 196.278,145.217 196.099 C 145.688 195.742,145.402 195.639,144.873 195.973 M261.169 195.937 C 261.155 196.423,261.798 197.497,262.325 197.866 C 263.162 198.452,263.330 198.248,262.530 197.617 C 262.116 197.291,261.643 196.715,261.478 196.336 C 261.313 195.957,261.174 195.778,261.169 195.937 M127.487 196.662 C 127.087 197.565,126.274 198.065,124.902 198.253 L 123.772 198.407 125.093 198.345 C 126.462 198.281,127.902 197.243,127.902 196.320 C 127.902 195.834,127.826 195.896,127.487 196.662 M180.406 196.577 C 179.329 197.107,178.735 198.074,178.661 199.415 L 178.598 200.558 178.762 199.554 C 179.065 197.703,179.970 196.716,181.615 196.440 C 182.566 196.280,182.604 196.255,181.920 196.237 C 181.490 196.225,180.809 196.378,180.406 196.577 M183.408 196.889 C 183.797 197.138,184.324 197.764,184.580 198.281 C 184.835 198.797,185.044 199.088,185.044 198.929 C 185.045 198.119,183.622 196.422,182.950 196.432 C 182.813 196.434,183.019 196.640,183.408 196.889 M193.580 196.819 C 194.174 199.019,194.966 201.537,195.041 201.462 C 195.158 201.345,193.734 196.429,193.583 196.429 C 193.524 196.429,193.522 196.604,193.580 196.819 M200.513 196.866 C 199.821 197.288,199.107 198.336,199.107 198.929 C 199.107 199.088,199.309 198.811,199.556 198.313 C 199.823 197.773,200.342 197.211,200.839 196.923 C 201.298 196.657,201.574 196.437,201.451 196.435 C 201.328 196.432,200.906 196.626,200.513 196.866 M203.460 196.780 C 203.828 196.971,204.369 197.347,204.662 197.615 L 205.195 198.103 204.934 197.603 C 204.671 197.097,203.613 196.427,203.080 196.430 C 202.921 196.431,203.092 196.588,203.460 196.780 M209.489 196.875 C 209.753 197.776,210.072 198.201,209.907 197.433 C 209.828 197.065,209.665 196.663,209.544 196.540 C 209.400 196.394,209.381 196.508,209.489 196.875 M143.755 197.310 C 143.605 197.672,143.534 198.099,143.598 198.259 C 143.665 198.424,143.722 198.355,143.732 198.097 C 143.742 197.848,143.906 197.421,144.097 197.148 C 144.289 196.875,144.351 196.652,144.236 196.652 C 144.121 196.652,143.905 196.948,143.755 197.310 M190.529 197.226 C 190.447 197.553,190.423 197.864,190.476 197.916 C 190.528 197.969,190.639 197.744,190.721 197.417 C 190.803 197.090,190.827 196.779,190.774 196.727 C 190.722 196.674,190.611 196.899,190.529 197.226 M135.970 198.746 C 135.918 200.467,137.377 202.253,138.575 201.937 C 138.861 201.861,138.840 201.831,138.486 201.812 C 137.420 201.752,136.293 200.386,136.143 198.970 L 136.003 197.656 135.970 198.746 M205.299 199.244 C 205.364 199.844,205.453 200.377,205.498 200.428 C 205.676 200.630,205.561 198.753,205.378 198.463 C 205.258 198.274,205.228 198.578,205.299 199.244 M210.088 198.438 C 210.151 198.622,210.428 199.457,210.705 200.293 C 210.981 201.130,211.246 201.775,211.295 201.726 C 211.403 201.618,210.328 198.416,210.122 198.234 C 210.040 198.162,210.025 198.253,210.088 198.438 M189.420 201.027 C 189.080 202.202,188.843 203.203,188.892 203.252 C 188.941 203.301,189.259 202.380,189.598 201.205 C 189.938 200.031,190.175 199.029,190.126 198.980 C 190.077 198.931,189.759 199.852,189.420 201.027 M128.582 199.442 C 128.570 200.066,129.340 201.260,129.955 201.570 C 130.381 201.784,130.360 201.732,129.832 201.259 C 129.482 200.946,129.060 200.309,128.893 199.843 C 128.715 199.343,128.587 199.179,128.582 199.442 M142.213 199.490 C 142.177 200.187,140.936 201.523,140.100 201.765 C 139.643 201.898,139.553 201.975,139.844 201.988 C 140.941 202.035,142.586 200.310,142.338 199.371 C 142.267 199.102,142.232 199.136,142.213 199.490 M143.533 199.554 C 143.520 200.595,145.135 202.039,146.250 201.983 C 146.701 201.960,146.709 201.945,146.317 201.856 C 145.112 201.584,144.365 201.043,143.958 200.148 C 143.726 199.637,143.535 199.369,143.533 199.554 M123.498 199.989 C 122.511 200.440,121.641 201.561,121.670 202.344 C 121.682 202.667,121.752 202.605,121.921 202.121 C 122.736 199.789,125.513 199.141,127.038 200.927 C 128.030 202.090,128.139 203.775,127.283 204.745 C 127.093 204.960,126.996 205.195,127.067 205.266 C 127.386 205.586,128.013 204.089,128.013 203.007 C 128.013 200.495,125.731 198.969,123.498 199.989 M153.348 199.767 C 153.532 199.891,153.876 199.995,154.111 199.997 C 154.682 200.001,154.504 199.873,153.683 199.690 C 153.194 199.580,153.104 199.601,153.348 199.767 M230.246 199.800 C 229.054 200.165,227.895 201.471,227.912 202.430 C 227.920 202.929,227.967 202.887,228.233 202.139 C 228.662 200.934,229.418 200.250,230.711 199.895 C 231.314 199.729,231.607 199.594,231.362 199.594 C 231.116 199.594,230.614 199.686,230.246 199.800 M263.616 199.777 C 263.187 199.914,263.347 199.961,264.311 199.978 C 265.852 200.005,266.550 200.489,267.091 201.907 C 268.033 204.373,265.550 206.819,263.229 205.712 C 262.798 205.506,262.392 205.391,262.326 205.456 C 262.057 205.726,263.973 206.291,264.788 206.181 C 268.171 205.728,268.507 200.698,265.216 199.783 C 264.305 199.530,264.384 199.531,263.616 199.777 M133.873 200.930 C 133.334 201.481,132.817 201.795,132.422 201.812 C 132.012 201.829,131.944 201.873,132.216 201.943 C 132.835 202.103,133.807 201.613,134.363 200.861 C 135.073 199.901,134.849 199.932,133.873 200.930 M151.060 200.614 C 149.595 202.150,149.737 204.519,151.358 205.563 C 151.809 205.854,151.779 205.773,151.175 205.072 C 149.921 203.615,149.932 202.140,151.207 200.788 C 151.616 200.354,151.882 200.000,151.798 200.000 C 151.714 200.000,151.383 200.276,151.060 200.614 M155.443 200.894 C 155.887 201.385,156.250 202.004,156.250 202.270 C 156.250 202.536,156.312 202.691,156.388 202.615 C 156.771 202.232,155.470 200.000,154.865 200.000 C 154.739 200.000,154.999 200.402,155.443 200.894 M184.534 200.879 C 183.965 202.113,183.190 202.562,181.696 202.523 C 180.620 202.495,180.546 202.519,181.095 202.719 C 182.420 203.202,184.377 202.149,185.007 200.614 C 185.394 199.669,184.985 199.898,184.534 200.879 M199.108 200.223 C 199.110 201.370,200.602 202.675,202.056 202.803 C 202.961 202.882,202.971 202.877,202.232 202.711 C 200.870 202.404,200.076 201.846,199.581 200.846 C 199.321 200.319,199.108 200.039,199.108 200.223 M233.259 200.818 C 233.689 201.308,234.073 201.684,234.114 201.655 C 234.276 201.537,233.389 200.412,232.948 200.178 C 232.619 200.003,232.712 200.195,233.259 200.818 M261.933 200.775 C 260.854 201.920,260.778 205.134,261.831 205.134 C 261.927 205.134,261.815 204.761,261.583 204.305 C 260.910 202.986,261.193 201.725,262.417 200.590 C 262.767 200.266,262.966 200.000,262.859 200.000 C 262.752 200.000,262.335 200.349,261.933 200.775 M178.800 200.837 C 178.802 200.929,179.009 201.256,179.259 201.563 L 179.714 202.121 179.360 201.395 C 179.024 200.706,178.789 200.472,178.800 200.837 M204.875 201.216 C 204.724 201.548,204.243 202.016,203.807 202.256 C 203.233 202.572,203.168 202.653,203.571 202.548 C 204.450 202.319,205.615 201.076,205.272 200.733 C 205.205 200.667,205.027 200.884,204.875 201.216 M172.438 203.465 C 172.099 204.395,171.866 205.199,171.920 205.253 C 171.974 205.307,172.288 204.584,172.619 203.646 C 172.950 202.708,173.183 201.903,173.138 201.858 C 173.092 201.812,172.777 202.536,172.438 203.465 M195.089 201.892 C 195.089 202.259,196.017 205.173,196.106 205.085 C 196.210 204.981,195.391 202.013,195.208 201.830 C 195.143 201.765,195.089 201.793,195.089 201.892 M234.188 202.902 C 234.144 204.035,233.611 204.982,232.669 205.603 C 232.318 205.835,232.149 206.025,232.293 206.025 C 233.281 206.031,234.457 204.133,234.316 202.763 L 234.227 201.897 234.188 202.902 M156.276 203.620 C 156.218 204.976,154.081 206.292,152.513 205.937 C 151.985 205.817,151.957 205.834,152.315 206.050 C 153.786 206.939,156.814 204.995,156.407 203.422 C 156.336 203.146,156.293 203.210,156.276 203.620 M180.748 203.595 C 181.270 203.853,181.696 204.154,181.696 204.264 C 181.696 204.374,181.822 204.461,181.975 204.458 C 182.475 204.446,180.812 203.125,180.298 203.125 C 179.924 203.125,180.037 203.243,180.748 203.595 M203.218 203.341 C 202.685 203.557,201.563 204.819,201.563 205.203 C 201.563 205.345,201.818 205.084,202.131 204.624 C 202.444 204.164,203.021 203.646,203.415 203.474 C 204.175 203.141,204.003 203.024,203.218 203.341 M205.692 203.438 C 206.445 203.770,206.922 204.263,207.441 205.246 C 207.635 205.614,207.799 205.780,207.804 205.615 C 207.828 204.799,206.155 203.112,205.343 203.134 C 205.167 203.139,205.324 203.275,205.692 203.438 M227.911 203.649 C 227.899 204.186,228.694 205.292,229.312 205.601 C 229.688 205.788,229.660 205.724,229.190 205.321 C 228.855 205.034,228.432 204.448,228.250 204.018 C 228.053 203.552,227.916 203.403,227.911 203.649 M121.775 204.018 C 122.013 204.895,123.475 206.287,123.808 205.954 C 123.869 205.893,123.637 205.709,123.294 205.545 C 122.951 205.380,122.435 204.844,122.147 204.353 C 121.800 203.761,121.675 203.648,121.775 204.018 M177.184 203.962 C 176.723 204.490,176.336 205.264,176.353 205.621 C 176.361 205.783,176.462 205.679,176.578 205.390 C 176.694 205.100,176.996 204.573,177.249 204.218 C 177.757 203.504,177.718 203.350,177.184 203.962 M188.413 204.485 C 188.262 204.988,188.189 205.451,188.251 205.513 C 188.313 205.575,188.477 205.203,188.616 204.688 C 188.945 203.466,188.771 203.292,188.413 204.485 M212.540 205.580 C 213.247 207.719,214.368 210.707,214.436 210.638 C 214.542 210.533,212.785 205.560,212.576 205.376 C 212.495 205.304,212.479 205.396,212.540 205.580 M126.296 205.698 C 126.231 205.763,125.737 205.903,125.198 206.009 C 124.419 206.162,124.356 206.204,124.888 206.215 C 125.508 206.229,127.197 205.639,126.656 205.598 C 126.523 205.589,126.361 205.633,126.296 205.698 M182.625 206.209 C 182.605 206.616,182.481 207.152,182.348 207.400 C 182.215 207.648,182.162 207.906,182.230 207.974 C 182.453 208.197,182.836 206.848,182.748 206.151 L 182.661 205.469 182.625 206.209 M201.366 206.250 C 201.306 208.078,202.847 209.626,204.665 209.562 C 205.533 209.532,205.571 209.514,204.911 209.446 C 204.481 209.402,203.902 209.316,203.624 209.254 C 202.853 209.083,201.812 207.858,201.664 206.947 C 201.438 205.553,201.392 205.446,201.366 206.250 M133.036 215.730 L 133.036 225.664 125.056 225.727 L 117.076 225.790 125.112 225.786 L 133.147 225.781 133.205 215.904 L 133.264 206.027 139.063 206.027 L 144.861 206.027 144.923 215.848 L 144.985 225.670 144.981 215.792 L 144.978 205.915 139.007 205.856 L 133.036 205.796 133.036 215.730 M230.146 206.039 C 230.444 206.227,232.110 206.351,231.901 206.169 C 231.850 206.125,231.361 206.031,230.815 205.961 C 230.173 205.879,229.936 205.906,230.146 206.039 M176.361 207.031 C 176.339 207.546,176.961 208.564,177.585 209.037 C 178.378 209.637,178.371 209.381,177.575 208.683 C 177.142 208.302,176.695 207.674,176.583 207.288 C 176.451 206.832,176.373 206.742,176.361 207.031 M207.506 207.442 C 207.431 207.741,207.014 208.299,206.579 208.680 C 206.144 209.062,205.884 209.375,206.002 209.375 C 206.578 209.375,208.080 207.336,207.748 207.004 C 207.690 206.946,207.582 207.143,207.506 207.442 M123.306 207.788 C 122.419 208.329,121.652 209.308,121.652 209.899 C 121.652 210.210,121.816 210.036,122.154 209.366 C 123.318 207.059,126.346 206.973,127.432 209.216 C 128.441 211.300,127.571 213.130,125.279 213.747 C 124.571 213.938,124.407 214.037,124.785 214.047 C 125.720 214.072,127.268 213.139,127.718 212.280 C 129.223 209.405,126.013 206.137,123.306 207.788 M151.786 207.766 C 148.214 209.721,150.788 215.325,154.538 213.758 C 155.446 213.378,156.480 212.178,156.453 211.534 C 156.438 211.171,156.381 211.227,156.228 211.756 C 155.765 213.355,153.688 214.215,152.100 213.464 C 149.199 212.091,149.875 208.086,153.080 207.656 C 154.492 207.467,156.245 208.710,156.253 209.907 C 156.255 210.167,156.356 210.530,156.476 210.714 C 156.828 211.250,156.465 209.579,156.089 208.929 C 155.270 207.514,153.246 206.967,151.786 207.766 M229.544 207.782 C 229.159 208.024,228.764 208.351,228.667 208.508 C 228.570 208.665,228.815 208.562,229.211 208.280 C 231.388 206.730,234.083 208.075,234.189 210.766 L 234.227 211.719 234.316 210.853 C 234.579 208.308,231.678 206.441,229.544 207.782 M262.768 207.778 C 261.997 208.188,261.164 209.249,261.163 209.821 C 261.162 210.006,261.337 209.807,261.552 209.379 C 263.053 206.391,267.188 207.333,267.188 210.663 C 267.188 212.119,266.585 213.200,265.598 213.513 C 265.349 213.592,265.193 213.705,265.253 213.765 C 265.498 214.010,266.761 213.110,267.111 212.440 C 268.681 209.443,265.682 206.224,262.768 207.778 M170.456 209.184 C 170.007 210.715,170.154 210.861,170.647 209.375 C 170.856 208.745,170.977 208.179,170.915 208.117 C 170.853 208.055,170.646 208.535,170.456 209.184 M181.300 208.755 C 180.971 209.083,180.407 209.299,179.632 209.393 L 178.460 209.535 179.420 209.567 C 180.411 209.599,181.402 209.218,181.907 208.608 C 182.350 208.075,181.862 208.192,181.300 208.755 M228.118 209.387 C 227.983 209.640,227.906 209.945,227.946 210.067 C 227.987 210.188,228.135 209.981,228.276 209.608 C 228.570 208.831,228.482 208.708,228.118 209.387 M175.514 210.258 C 173.309 211.603,173.656 216.078,175.966 216.071 C 176.110 216.070,175.895 215.867,175.489 215.619 C 172.269 213.656,175.247 208.660,178.603 210.396 C 178.977 210.589,179.327 210.703,179.381 210.648 C 180.035 209.994,176.527 209.640,175.514 210.258 M205.525 210.069 C 205.187 210.199,204.911 210.391,204.911 210.496 C 204.911 210.602,205.187 210.544,205.525 210.368 C 206.326 209.949,207.533 209.960,208.371 210.394 C 209.000 210.719,209.018 210.717,208.666 210.361 C 208.215 209.904,206.393 209.735,205.525 210.069 M182.883 210.480 C 182.491 210.718,182.049 211.145,181.899 211.428 C 181.695 211.813,181.794 211.764,182.293 211.234 C 182.729 210.771,183.262 210.476,183.835 210.382 C 185.325 210.137,185.409 210.097,184.487 210.071 C 183.956 210.056,183.305 210.222,182.883 210.480 M190.494 210.467 C 189.667 210.971,188.839 211.976,188.840 212.474 C 188.840 212.673,189.016 212.485,189.230 212.058 C 190.017 210.493,191.740 209.888,193.417 210.589 C 195.080 211.284,195.626 213.656,194.504 215.309 C 194.182 215.783,194.089 216.030,194.296 215.858 C 197.174 213.469,193.685 208.521,190.494 210.467 M198.306 210.453 C 197.553 210.927,196.651 211.968,196.653 212.363 C 196.653 212.500,196.853 212.284,197.097 211.884 C 197.944 210.495,199.542 209.937,201.046 210.505 C 201.535 210.690,201.615 210.683,201.408 210.474 C 200.924 209.984,199.071 209.972,198.306 210.453 M186.118 210.720 C 186.544 210.980,187.037 211.569,187.285 212.114 C 187.521 212.633,187.716 212.927,187.718 212.768 C 187.732 211.970,186.307 210.266,185.628 210.269 C 185.491 210.269,185.712 210.472,186.118 210.720 M169.783 210.961 C 169.731 211.132,169.464 211.903,169.189 212.675 C 168.915 213.446,168.743 214.130,168.807 214.194 C 168.872 214.259,169.185 213.534,169.505 212.585 C 169.824 211.636,170.038 210.812,169.981 210.755 C 169.923 210.697,169.834 210.790,169.783 210.961 M201.786 210.924 C 201.786 211.054,201.862 211.161,201.956 211.161 C 202.215 211.161,202.902 212.873,202.902 213.517 C 202.902 214.843,201.696 216.114,200.079 216.494 C 199.454 216.641,199.372 216.701,199.777 216.714 C 202.197 216.790,203.819 214.066,202.682 211.837 C 202.230 210.951,201.786 210.499,201.786 210.924 M204.259 211.127 C 203.895 211.808,203.970 211.998,204.375 211.419 C 204.572 211.138,204.681 210.856,204.617 210.792 C 204.553 210.728,204.392 210.879,204.259 211.127 M209.152 210.910 C 209.152 211.018,209.298 211.227,209.476 211.375 C 210.480 212.208,209.949 214.835,208.612 215.651 C 208.233 215.881,208.036 216.070,208.173 216.071 C 209.701 216.076,210.776 213.040,209.803 211.466 C 209.334 210.707,209.152 210.551,209.152 210.910 M121.671 211.466 C 121.649 212.214,123.120 213.846,123.802 213.829 C 124.078 213.823,123.938 213.671,123.389 213.381 C 122.556 212.942,122.186 212.460,121.863 211.397 L 121.690 210.826 121.671 211.466 M179.928 211.753 C 180.164 212.216,180.369 212.849,180.383 213.161 C 180.400 213.543,180.442 213.599,180.511 213.335 C 180.642 212.836,180.206 211.498,179.805 211.166 C 179.615 211.008,179.662 211.231,179.928 211.753 M227.919 211.397 C 227.910 211.588,228.058 211.940,228.249 212.178 C 228.591 212.605,228.593 212.604,228.391 212.165 C 228.278 211.920,228.129 211.568,228.061 211.384 C 227.954 211.095,227.935 211.096,227.919 211.397 M261.178 211.544 C 261.141 212.619,263.140 214.118,264.509 214.041 C 264.693 214.031,264.351 213.887,263.748 213.722 C 262.504 213.380,261.836 212.811,261.457 211.769 C 261.246 211.190,261.191 211.146,261.178 211.544 M239.286 211.638 C 239.286 211.744,239.537 211.830,239.844 211.830 C 240.151 211.830,240.402 211.792,240.402 211.745 C 240.402 211.698,240.151 211.611,239.844 211.553 C 239.537 211.494,239.286 211.532,239.286 211.638 M250.279 211.761 C 250.494 211.817,250.845 211.817,251.060 211.761 C 251.275 211.705,251.099 211.659,250.670 211.659 C 250.240 211.659,250.064 211.705,250.279 211.761 M282.645 211.767 C 282.983 211.818,283.535 211.818,283.873 211.767 C 284.210 211.716,283.934 211.674,283.259 211.674 C 282.584 211.674,282.307 211.716,282.645 211.767 M233.695 212.408 C 233.525 212.725,233.031 213.173,232.597 213.402 C 232.163 213.632,231.970 213.824,232.169 213.829 C 232.822 213.847,234.430 212.257,234.096 211.923 C 234.045 211.872,233.865 212.091,233.695 212.408 M285.097 218.694 L 285.045 225.670 270.770 225.670 C 257.420 225.670,256.479 225.644,256.244 225.279 C 256.010 224.914,256.002 224.915,256.122 225.297 C 256.192 225.522,256.250 225.748,256.250 225.800 C 256.250 226.066,285.064 225.879,285.167 225.612 C 285.226 225.457,285.246 222.268,285.212 218.524 L 285.149 211.719 285.097 218.694 M181.385 212.407 C 180.939 213.571,181.733 215.625,182.855 216.205 C 183.759 216.673,183.923 216.581,183.089 216.073 C 181.961 215.385,181.431 214.373,181.540 213.114 C 181.637 211.988,181.604 211.838,181.385 212.407 M203.828 213.058 C 203.771 215.057,205.068 216.336,207.080 216.265 L 207.924 216.235 206.920 216.087 C 204.991 215.803,204.190 215.014,203.996 213.203 L 203.860 211.942 203.828 213.058 M214.972 212.500 C 214.974 212.684,215.118 213.136,215.291 213.504 L 215.607 214.174 215.474 213.504 C 215.308 212.666,214.967 211.984,214.972 212.500 M229.129 213.276 C 229.498 213.584,229.941 213.838,230.115 213.838 C 230.497 213.840,230.480 213.826,229.353 213.206 L 228.460 212.714 229.129 213.276 M251.884 218.862 C 251.884 222.299,251.915 223.674,251.953 221.917 C 251.990 220.160,251.990 217.348,251.952 215.667 C 251.915 213.987,251.884 215.424,251.884 218.862 M179.962 214.459 C 179.822 214.859,179.458 215.293,179.141 215.437 C 178.828 215.580,178.571 215.793,178.571 215.911 C 178.571 216.222,179.488 215.566,179.985 214.900 C 180.219 214.588,180.365 214.199,180.311 214.036 C 180.257 213.873,180.100 214.063,179.962 214.459 M188.855 214.217 C 188.846 214.486,188.940 214.768,189.063 214.844 C 189.327 215.007,189.327 214.789,189.063 214.174 C 188.878 213.744,188.870 213.745,188.855 214.217 M187.293 214.693 C 186.945 215.534,186.029 216.195,184.802 216.492 L 183.817 216.730 184.821 216.618 C 186.167 216.467,188.211 214.700,187.668 214.156 C 187.609 214.097,187.440 214.339,187.293 214.693 M196.661 214.338 C 196.656 214.551,196.928 215.008,197.266 215.355 C 197.603 215.701,197.766 215.828,197.628 215.637 C 197.490 215.446,197.218 214.989,197.023 214.621 C 196.789 214.178,196.667 214.082,196.661 214.338 M215.668 214.509 C 215.731 214.693,216.015 215.547,216.299 216.406 C 216.583 217.266,216.848 217.868,216.889 217.746 C 216.975 217.484,215.979 214.558,215.726 214.330 C 215.632 214.244,215.605 214.325,215.668 214.509 M123.523 215.520 C 122.707 215.878,121.647 217.059,121.662 217.595 C 121.667 217.801,121.872 217.589,122.117 217.124 C 123.471 214.559,127.023 215.092,127.797 217.976 C 128.007 218.759,128.099 218.909,128.110 218.486 C 128.169 216.128,125.731 214.552,123.523 215.520 M152.232 215.362 C 150.827 215.998,149.986 217.213,150.018 218.561 C 150.037 219.400,150.121 219.255,150.328 218.020 C 150.862 214.827,155.525 214.613,156.310 217.746 C 156.414 218.163,156.423 218.160,156.447 217.707 C 156.526 216.226,153.743 214.677,152.232 215.362 M168.106 215.870 C 167.969 216.263,167.864 216.695,167.873 216.830 C 167.882 216.965,168.033 216.683,168.209 216.203 C 168.385 215.722,168.490 215.290,168.442 215.242 C 168.394 215.195,168.243 215.477,168.106 215.870 M189.937 215.849 C 190.918 216.688,192.327 216.930,193.221 216.413 C 193.573 216.210,193.676 216.100,193.450 216.170 C 192.328 216.515,191.927 216.540,191.222 216.307 C 190.801 216.168,190.277 215.858,190.059 215.617 C 189.841 215.376,189.553 215.183,189.419 215.188 C 189.284 215.193,189.518 215.490,189.937 215.849 M229.684 215.592 C 228.854 216.033,227.896 217.244,227.911 217.834 C 227.915 218.031,228.063 217.862,228.238 217.458 C 228.626 216.566,228.937 216.240,229.855 215.766 C 232.612 214.340,235.452 217.793,233.594 220.313 C 233.020 221.091,232.961 221.205,233.139 221.205 C 233.196 221.205,233.498 220.830,233.809 220.372 C 235.718 217.562,232.656 214.013,229.684 215.592 M237.723 215.429 C 237.111 215.672,235.938 216.714,235.938 217.013 C 235.938 217.117,236.286 216.854,236.711 216.428 C 239.583 213.557,243.844 217.554,241.127 220.571 C 240.559 221.202,240.445 221.418,240.772 221.244 C 244.104 219.473,241.249 214.027,237.723 215.429 M245.181 215.587 C 244.260 216.167,243.520 217.139,243.557 217.720 C 243.585 218.159,243.595 218.156,243.686 217.680 C 244.266 214.651,249.158 214.937,249.675 218.031 C 249.879 219.255,249.963 219.398,249.982 218.561 C 250.039 216.149,247.141 214.355,245.181 215.587 M263.002 215.499 C 262.008 215.948,262.081 216.159,263.085 215.740 C 264.106 215.313,264.508 215.316,265.610 215.757 C 267.948 216.692,267.800 220.531,265.394 221.360 C 264.969 221.507,264.792 221.632,265.001 221.639 C 266.084 221.675,267.256 220.431,267.523 218.963 C 267.967 216.518,265.290 214.466,263.002 215.499 M270.982 215.349 C 268.507 216.565,268.036 219.257,269.996 220.982 C 270.598 221.512,270.595 221.497,269.925 220.708 C 268.744 219.317,268.689 217.825,269.771 216.539 C 271.490 214.495,274.756 215.504,275.211 218.219 C 275.364 219.131,275.398 219.186,275.420 218.561 C 275.494 216.448,272.765 214.473,270.982 215.349 M278.460 215.521 C 277.679 215.918,276.786 216.929,276.792 217.411 C 276.794 217.595,277.013 217.372,277.278 216.915 C 278.677 214.500,282.157 215.131,282.819 217.919 L 282.990 218.638 283.013 217.930 C 283.073 216.054,280.300 214.587,278.460 215.521 M176.845 216.232 C 177.184 216.283,177.686 216.282,177.961 216.229 C 178.235 216.176,177.958 216.134,177.344 216.135 C 176.730 216.137,176.505 216.180,176.845 216.232 M261.445 216.899 C 260.585 218.212,261.370 220.945,262.736 221.394 C 262.913 221.453,262.687 221.088,262.234 220.585 C 261.167 219.401,260.964 218.384,261.555 217.190 C 262.066 216.156,262.017 216.026,261.445 216.899 M173.661 216.675 C 170.742 217.742,171.335 223.099,174.357 222.968 C 174.759 222.951,174.691 222.892,174.078 222.729 C 170.786 221.851,171.400 216.745,174.798 216.742 C 178.346 216.738,179.117 221.465,175.763 222.660 C 175.282 222.831,175.074 222.976,175.301 222.981 C 176.765 223.016,178.123 221.517,178.123 219.866 C 178.123 217.570,175.785 215.899,173.661 216.675 M207.610 217.000 C 205.994 218.109,205.509 219.780,206.338 221.383 C 207.779 224.169,212.500 223.091,212.500 219.975 C 212.500 217.254,209.712 215.557,207.610 217.000 M210.871 217.178 C 211.894 217.802,212.350 218.805,212.221 220.147 C 211.857 223.932,206.137 223.542,206.195 219.736 C 206.231 217.370,208.842 215.941,210.871 217.178 M167.199 218.571 C 166.083 221.688,164.754 225.722,164.887 225.589 C 165.104 225.372,167.650 218.022,167.545 217.917 C 167.499 217.871,167.344 218.166,167.199 218.571 M276.587 218.367 C 276.535 219.683,277.969 221.652,278.979 221.651 C 279.185 221.651,279.008 221.475,278.587 221.261 C 277.591 220.753,277.051 219.991,276.808 218.750 C 276.666 218.026,276.605 217.919,276.587 218.367 M227.913 218.973 C 227.903 219.643,228.530 220.649,229.265 221.142 C 229.734 221.458,229.723 221.419,229.168 220.820 C 228.820 220.446,228.398 219.752,228.229 219.277 C 227.978 218.573,227.920 218.517,227.913 218.973 M121.672 219.085 C 121.647 219.699,122.412 220.898,123.035 221.219 C 123.445 221.431,123.400 221.328,122.814 220.710 C 122.409 220.284,121.991 219.644,121.884 219.287 C 121.747 218.828,121.685 218.769,121.672 219.085 M217.315 219.196 C 217.398 219.503,217.558 219.905,217.672 220.089 C 217.815 220.322,217.833 220.254,217.729 219.866 C 217.647 219.559,217.487 219.157,217.373 218.973 C 217.229 218.741,217.212 218.809,217.315 219.196 M282.760 219.324 C 282.681 219.701,282.284 220.348,281.877 220.762 C 281.287 221.362,281.251 221.444,281.696 221.166 C 282.389 220.736,283.098 219.564,282.987 219.034 C 282.933 218.774,282.855 218.872,282.760 219.324 M156.160 219.524 C 156.081 219.838,155.703 220.395,155.319 220.762 C 154.935 221.128,154.728 221.429,154.858 221.429 C 155.379 221.429,156.724 219.373,156.409 219.058 C 156.351 219.000,156.239 219.209,156.160 219.524 M235.723 219.155 C 235.704 219.786,236.879 221.429,237.348 221.429 C 237.468 221.429,237.295 221.178,236.964 220.872 C 236.634 220.565,236.221 219.988,236.048 219.588 C 235.874 219.189,235.728 218.994,235.723 219.155 M243.536 219.155 C 243.516 219.804,244.695 221.429,245.184 221.428 C 245.316 221.428,245.149 221.192,244.813 220.902 C 244.477 220.613,244.054 220.036,243.873 219.619 C 243.692 219.203,243.540 218.994,243.536 219.155 M127.696 219.498 C 127.671 220.088,126.257 221.425,125.636 221.446 C 125.348 221.456,125.242 221.516,125.402 221.580 C 126.181 221.892,128.130 220.122,127.830 219.374 C 127.759 219.198,127.707 219.246,127.696 219.498 M150.230 219.590 C 150.226 219.746,150.550 220.202,150.949 220.605 C 151.348 221.008,151.462 221.082,151.202 220.769 C 150.942 220.457,150.619 220.000,150.483 219.754 C 150.348 219.509,150.234 219.435,150.230 219.590 M249.554 219.598 C 249.554 219.737,249.231 220.231,248.836 220.695 C 248.193 221.453,248.184 221.482,248.745 220.982 C 249.451 220.353,249.877 219.669,249.683 219.475 C 249.612 219.404,249.554 219.459,249.554 219.598 M274.892 219.856 C 274.815 220.096,274.449 220.548,274.078 220.861 C 273.707 221.173,273.501 221.429,273.620 221.429 C 273.887 221.429,275.223 219.933,275.223 219.635 C 275.223 219.272,275.038 219.395,274.892 219.856 M183.928 220.254 C 183.928 220.348,187.676 220.397,192.256 220.363 L 200.583 220.302 201.114 222.138 C 201.406 223.147,201.675 223.878,201.714 223.761 C 201.752 223.645,201.553 222.796,201.273 221.875 L 200.762 220.201 192.345 220.142 C 187.716 220.110,183.929 220.160,183.928 220.254 M217.999 221.205 C 218.074 221.512,218.273 222.065,218.440 222.433 C 218.685 222.971,218.718 222.993,218.608 222.545 C 218.533 222.238,218.334 221.685,218.167 221.317 C 217.922 220.779,217.889 220.757,217.999 221.205 M183.281 222.232 C 183.153 222.697,183.088 223.118,183.137 223.167 C 183.186 223.216,183.331 222.876,183.460 222.411 C 183.588 221.946,183.653 221.525,183.604 221.476 C 183.555 221.427,183.410 221.767,183.281 222.232 M218.768 223.242 C 218.758 223.319,218.901 223.808,219.085 224.330 C 219.269 224.852,219.420 225.366,219.420 225.472 C 219.420 225.578,215.678 225.692,211.105 225.727 L 202.790 225.790 211.161 225.785 L 219.531 225.781 219.496 225.216 C 219.463 224.696,218.810 222.924,218.768 223.242 M201.860 224.601 C 201.892 224.934,201.988 225.277,202.075 225.364 C 202.292 225.580,202.244 224.985,202.001 224.442 C 201.829 224.057,201.810 224.079,201.860 224.601 M173.661 225.670 L 165.067 225.789 173.592 225.841 C 179.091 225.874,182.165 225.814,182.254 225.670 C 182.330 225.547,182.361 225.470,182.323 225.498 C 182.286 225.527,178.387 225.604,173.661 225.670 M237.612 225.670 L 223.326 225.786 237.667 225.840 C 247.115 225.875,252.009 225.817,252.009 225.670 C 252.009 225.547,251.984 225.470,251.953 225.500 C 251.922 225.529,245.469 225.606,237.612 225.670 M119.531 279.911 C 120.260 280.647,120.907 281.250,120.968 281.250 C 121.030 281.250,120.483 280.647,119.754 279.911 C 119.026 279.174,118.379 278.571,118.318 278.571 C 118.256 278.571,118.802 279.174,119.531 279.911 M280.239 279.967 L 278.906 281.362 280.301 280.029 C 281.597 278.792,281.799 278.571,281.634 278.571 C 281.599 278.571,280.971 279.199,280.239 279.967 M199.051 311.547 C 199.573 311.594,200.427 311.594,200.949 311.547 C 201.470 311.500,201.044 311.462,200.000 311.462 C 198.956 311.462,198.530 311.500,199.051 311.547 M199.051 313.556 C 199.573 313.603,200.427 313.603,200.949 313.556 C 201.470 313.509,201.044 313.471,200.000 313.471 C 198.956 313.471,198.530 313.509,199.051 313.556  M -25 0 L -5 0 L -5 20 L -25 20 Z M 405 0 L 425 0 L 425 20 L 405 20 Z" stroke="none" fill="#f7d2a3" fill-rule="evenodd" transform="translate(490,460)"></path></g></svg>