<?xml version="1.0" standalone="no"?>
<!DOCTYPE svg PUBLIC "-//W3C//DTD SVG 20010904//EN"
 "http://www.w3.org/TR/2001/REC-SVG-20010904/DTD/svg10.dtd">
<svg version="1.0" xmlns="http://www.w3.org/2000/svg"
 width="1125.000000pt" height="1119.000000pt" viewBox="0 0 1125.000000 1119.000000"
 preserveAspectRatio="xMidYMid meet">

<g transform="translate(0.000000,1119.000000) scale(0.100000,-0.100000)"
fill="#000000" stroke="none">
<path d="M5190 9264 c-253 -22 -324 -34 -560 -91 -580 -143 -1076 -407 -1545
-823 -197 -175 -402 -411 -562 -650 -317 -471 -497 -950 -585 -1555 -18 -123
-18 -744 0 -875 59 -432 168 -793 352 -1160 427 -855 1171 -1498 2080 -1800
102 -33 293 -85 375 -101 137 -26 282 -49 395 -61 157 -16 548 -16 700 1 117
13 376 55 440 71 19 5 71 18 115 29 84 22 285 86 370 119 122 47 168 67 295
130 784 384 1410 1057 1738 1867 75 183 154 442 183 595 5 27 14 74 19 103 40
207 53 356 53 632 1 317 -10 433 -73 757 -11 60 -16 68 -41 68 -31 0 -33 -22
-10 -137 27 -140 46 -297 61 -507 14 -180 5 -385 -26 -629 -118 -931 -616
-1779 -1379 -2353 -83 -63 -195 -141 -230 -160 -11 -6 -56 -33 -100 -59 -184
-110 -442 -227 -658 -299 -260 -87 -470 -131 -802 -167 -120 -13 -645 -6 -725
10 -30 5 -93 15 -140 22 -526 71 -1140 336 -1585 684 -703 548 -1166 1313
-1315 2170 -130 749 -20 1504 317 2179 167 336 391 644 664 917 450 448 975
746 1619 919 71 19 228 49 330 64 221 32 282 36 525 36 138 0 288 -5 335 -10
236 -29 398 -58 555 -99 53 -14 53 -14 64 7 16 30 -2 42 -105 68 -355 89 -772
121 -1144 88z"/>
<path d="M6567 9213 c-68 -181 -96 -277 -84 -285 19 -12 110 -39 115 -33 3 2
-4 8 -14 11 -77 28 -84 33 -84 63 0 16 5 33 10 36 6 3 10 15 10 26 0 10 4 27
9 37 23 46 41 95 41 112 0 10 5 22 10 25 6 3 10 15 10 25 0 30 19 34 78 14 74
-25 127 -77 137 -133 15 -89 -41 -188 -116 -206 -19 -5 -45 -12 -59 -16 l-25
-7 25 -1 c70 -3 146 42 176 105 19 40 23 156 6 162 -7 2 -12 10 -12 17 0 19
-67 75 -90 75 -11 0 -20 5 -20 10 0 6 -11 10 -24 10 -14 0 -28 5 -31 10 -3 6
-15 10 -25 10 -13 0 -25 -18 -43 -67z"/>
<path d="M6930 9020 c0 -5 -8 -10 -17 -11 -59 -1 -96 -148 -53 -208 32 -46 74
-64 137 -59 53 5 72 12 60 25 -4 4 -13 1 -19 -5 -30 -30 -123 -6 -166 43 -24
27 -31 108 -11 120 5 4 27 -1 47 -10 20 -10 69 -33 107 -51 95 -45 97 -45 106
-4 15 67 -11 128 -68 158 -27 15 -123 16 -123 2z m110 -9 c0 -5 8 -11 18 -13
10 -3 29 -27 41 -53 27 -58 18 -95 -24 -95 -14 0 -25 4 -25 8 0 5 -38 26 -85
47 -99 44 -105 57 -45 97 26 18 120 25 120 9z"/>
<path d="M7207 8872 c-31 -34 -21 -65 38 -125 57 -57 67 -86 41 -119 -17 -23
-69 -23 -104 -1 -33 21 -45 39 -53 78 -6 29 -6 29 -8 -6 -3 -81 131 -138 182
-78 30 37 21 66 -38 128 -78 82 -75 125 10 134 l40 4 -46 1 c-33 2 -50 -3 -62
-16z"/>
<path d="M7310 8866 c0 -2 7 -6 15 -10 8 -3 15 -1 15 4 0 6 -7 10 -15 10 -8 0
-15 -2 -15 -4z"/>
<path d="M7350 8838 c0 -10 4 -18 9 -18 5 0 12 -12 14 -27 4 -28 4 -28 6 -2 0
14 -6 34 -14 45 -13 17 -14 17 -15 2z"/>
<path d="M7530 8830 c0 -5 5 -10 10 -10 6 0 10 5 10 10 0 6 -4 10 -10 10 -5 0
-10 -4 -10 -10z"/>
<path d="M7430 8678 c-79 -126 -91 -148 -83 -148 4 0 35 43 68 95 33 52 63 95
67 95 5 0 8 7 8 15 0 28 -15 14 -60 -57z"/>
<path d="M7575 8650 c-4 -6 -11 -8 -16 -4 -6 3 -28 -13 -50 -35 -34 -37 -39
-48 -39 -89 0 -27 5 -60 12 -74 16 -33 64 -66 108 -74 65 -11 66 -13 25 -49
-29 -27 -46 -35 -75 -35 -56 0 -102 35 -122 95 l-17 50 -1 -37 c0 -31 7 -45
40 -78 37 -37 44 -40 94 -40 68 0 82 11 181 141 56 73 72 99 56 94 -18 -5 -21
-2 -21 20 0 15 -4 24 -10 20 -5 -3 -10 -22 -10 -41 0 -48 -23 -88 -65 -113
-47 -27 -67 -27 -115 4 -49 31 -60 51 -60 113 0 39 5 54 28 79 29 34 100 59
116 43 6 -6 18 -10 27 -10 10 0 29 -14 43 -31 14 -17 26 -25 26 -18 0 16 -47
58 -77 70 -32 12 -70 12 -78 -1z"/>
<path d="M7793 8353 c-50 -54 -89 -100 -87 -102 2 -2 37 27 77 66 39 39 83 73
96 78 16 5 20 10 13 17 -6 6 -8 17 -5 24 10 26 -4 14 -94 -83z"/>
<path d="M7989 8354 c41 -53 24 -108 -58 -189 -28 -27 -51 -55 -51 -63 0 -15
117 106 137 142 7 11 12 33 13 48 0 32 -30 88 -48 88 -9 0 -7 -8 7 -26z"/>
<path d="M8260 8117 c-57 -27 -64 -74 -24 -156 29 -58 36 -120 15 -145 -9 -10
-29 -16 -59 -16 -40 0 -50 5 -79 36 -27 30 -33 45 -33 80 0 23 5 46 10 49 6 3
10 14 10 23 0 15 -1 15 -17 0 -11 -11 -17 -35 -17 -66 -1 -39 5 -56 28 -86 52
-68 120 -80 167 -30 31 33 29 83 -5 149 -34 66 -35 119 -1 141 36 23 87 11
121 -29 23 -28 26 -37 21 -85 -5 -46 -4 -52 9 -41 8 6 14 29 14 52 0 49 -37
103 -86 123 -39 16 -41 16 -74 1z"/>
<path d="M8506 7855 c-23 -17 -56 -20 -56 -5 0 6 -5 10 -10 10 -7 0 -7 -6 -1
-18 13 -24 7 -31 -77 -87 -40 -27 -80 -58 -88 -69 -17 -25 -18 -65 0 -88 20
-26 26 -22 14 10 -19 51 -4 75 84 135 46 32 86 57 90 57 4 0 19 -17 33 -37 31
-46 33 -34 3 15 l-21 35 34 28 c35 29 30 41 -5 14z"/>
<path d="M8478 7617 c-102 -64 -108 -72 -108 -134 0 -46 4 -58 32 -88 29 -33
68 -47 68 -25 0 6 -9 10 -19 10 -11 0 -31 14 -45 31 -36 43 -35 95 2 137 16
18 32 32 36 32 9 0 126 71 126 76 0 12 -33 -2 -92 -39z"/>
<path d="M8665 7461 c-16 -15 -125 -75 -160 -87 -20 -8 -20 -8 0 -11 20 -4
184 85 185 100 0 10 -14 9 -25 -2z"/>
<path d="M8608 7323 c-55 -27 -79 -63 -80 -122 0 -27 3 -60 7 -73 9 -28 60
-78 81 -78 17 0 17 -5 4 -31 -10 -17 -8 -18 14 -10 13 6 70 32 127 59 57 27
121 56 142 66 20 9 37 21 37 26 0 5 -24 -2 -52 -15 -74 -35 -79 -33 -72 19 4
24 1 59 -6 80 -25 76 -125 116 -202 79z m116 -8 c45 -19 86 -81 86 -130 0 -29
-9 -44 -45 -80 -42 -42 -48 -45 -98 -45 -44 0 -59 5 -78 24 -44 44 -49 55 -49
103 0 39 6 56 31 86 17 20 39 37 49 37 10 0 22 5 25 10 9 14 37 12 79 -5z"/>
<path d="M8970 7030 c0 -5 7 -10 15 -10 8 0 15 5 15 10 0 6 -7 10 -15 10 -8 0
-15 -4 -15 -10z"/>
<path d="M8817 6975 c-38 -13 -83 -31 -99 -40 -17 -8 -39 -15 -50 -15 -10 0
-18 -6 -18 -14 0 -13 4 -13 28 0 15 7 34 14 43 14 8 0 19 4 25 9 5 5 38 19 74
31 36 12 69 26 75 31 15 14 -4 10 -78 -16z"/>
<path d="M8770 6854 c-77 -48 -94 -164 -34 -230 24 -26 80 -54 111 -54 17 0
48 9 70 21 100 53 111 178 22 254 -25 20 -41 25 -87 25 -34 0 -67 -7 -82 -16z
m133 -8 c50 -21 70 -50 75 -110 4 -45 0 -60 -18 -85 -41 -58 -110 -76 -174
-46 -43 21 -66 63 -66 122 0 100 90 159 183 119z"/>
<path d="M0 10 c0 -7 1882 -10 5625 -10 3743 0 5625 3 5625 10 0 7 -1882 10
-5625 10 -3743 0 -5625 -3 -5625 -10z"/>
</g>
</svg>
