<?xml version="1.0" standalone="no"?>
<!DOCTYPE svg PUBLIC "-//W3C//DTD SVG 20010904//EN"
 "http://www.w3.org/TR/2001/REC-SVG-20010904/DTD/svg10.dtd">
<svg version="1.0" xmlns="http://www.w3.org/2000/svg"
 width="300.000000pt" height="300.000000pt" viewBox="0 0 300.000000 300.000000"
 preserveAspectRatio="xMidYMid meet">
<metadata>
Created by potrace 1.10, written by Peter Selinger 2001-2011
</metadata>
<g transform="translate(0.000000,300.000000) scale(0.100000,-0.100000)"
fill="#000000" stroke="none">
<path d="M1746 2306 c-9 -23 -16 -44 -16 -48 0 -14 46 -16 67 -3 20 14 22 13
25 -13 2 -21 8 -27 28 -27 14 0 28 -7 32 -17 8 -20 43 -24 53 -7 4 5 -1 19
-11 30 -15 16 -15 19 -1 19 8 0 18 -5 20 -10 3 -6 4 -5 3 2 -3 17 -46 23 -46
7 0 -7 7 -21 17 -31 14 -16 15 -18 0 -18 -21 0 -31 18 -29 51 3 36 -23 57 -49
41 -17 -11 -19 -9 -19 12 0 24 -12 38 -41 49 -13 4 -21 -5 -33 -37z m57 3 c16
-26 1 -49 -32 -49 -29 0 -29 0 -18 35 11 38 32 43 50 14z m66 -38 c18 -12 4
-53 -17 -49 -8 2 -17 9 -20 17 -3 9 2 11 19 7 l24 -7 -23 14 c-12 7 -19 16
-16 20 9 9 16 9 33 -2z"/>
<path d="M1370 2333 c-142 -24 -303 -98 -416 -192 -127 -106 -230 -269 -275
-437 -30 -112 -30 -306 0 -418 78 -293 305 -524 597 -608 114 -33 334 -33 448
0 362 104 613 425 619 792 2 115 -9 220 -24 220 -5 0 -5 -20 -1 -47 15 -99 7
-283 -16 -366 -85 -304 -341 -541 -642 -597 -83 -16 -237 -16 -320 0 -301 56
-555 292 -642 597 -32 112 -32 324 0 436 42 147 131 295 236 390 208 190 469
259 766 201 24 -4 32 -3 25 4 -24 24 -260 41 -355 25z"/>
<path d="M1950 2190 c-12 -16 -18 -30 -13 -30 5 0 17 14 26 30 10 17 16 30 13
30 -2 0 -14 -13 -26 -30z"/>
<path d="M1982 2188 c-17 -17 -15 -38 5 -60 15 -17 15 -18 -1 -18 -9 0 -21 10
-26 23 -8 17 -9 18 -7 3 1 -10 10 -24 20 -30 15 -9 23 -5 48 22 29 32 30 35
13 53 -20 22 -35 24 -52 7z m32 -4 c9 -3 16 -12 16 -18 0 -18 -21 -35 -36 -29
-15 5 -19 35 -7 46 8 8 8 8 27 1z"/>
<path d="M2039 2117 l-23 -32 25 23 c14 12 30 22 36 22 21 0 21 -25 0 -47 -11
-13 -15 -23 -9 -23 16 0 45 47 37 60 -3 5 -15 14 -25 20 -15 8 -23 4 -41 -23z"/>
<path d="M2144 2056 c-3 -8 -1 -24 5 -35 8 -14 8 -22 0 -27 -13 -8 -25 4 -32
31 -4 19 -5 19 -6 -1 0 -12 6 -27 15 -34 12 -11 18 -11 30 2 13 13 14 20 4 38
-14 25 -8 35 16 26 9 -3 14 -12 10 -21 -3 -8 -1 -15 4 -15 14 0 12 24 -2 38
-16 16 -37 15 -44 -2z"/>
<path d="M2195 2002 c2 -2 -7 -14 -21 -26 -19 -16 -22 -24 -13 -36 9 -13 10
-13 6 2 -4 10 3 22 19 32 13 9 24 12 24 6 0 -5 5 -10 11 -10 8 0 8 4 0 14 -9
11 -9 15 1 19 7 3 3 4 -9 4 -12 -1 -20 -3 -18 -5z"/>
<path d="M2197 1942 c-21 -23 -21 -36 -3 -51 10 -9 20 -9 40 0 14 7 26 16 26
21 0 5 -11 1 -25 -8 -13 -8 -29 -13 -35 -9 -18 11 -11 34 18 49 16 9 21 15 11
16 -9 0 -23 -8 -32 -18z"/>
<path d="M2230 1870 c-16 -16 -18 -25 -10 -40 5 -10 14 -21 18 -24 9 -5 92 30
92 39 0 3 -9 1 -20 -5 -17 -9 -20 -8 -20 8 0 18 -18 42 -32 42 -4 0 -17 -9
-28 -20z m48 -24 c-2 -13 -10 -21 -23 -21 -23 0 -33 34 -14 45 20 13 40 -1 37
-24z"/>
<path d="M2320 1810 c0 -5 5 -10 10 -10 6 0 10 5 10 10 0 6 -4 10 -10 10 -5 0
-10 -4 -10 -10z"/>
<path d="M2271 1794 c-18 -8 -31 -17 -29 -19 6 -7 68 18 68 27 0 4 -1 8 -2 7
-2 0 -18 -7 -37 -15z"/>
<path d="M2276 1767 c-28 -20 -18 -61 16 -65 37 -4 57 31 32 59 -20 23 -25 23
-48 6z m47 -21 c8 -20 -8 -38 -29 -34 -22 4 -31 37 -13 48 15 10 36 3 42 -14z"/>
<path d="M875 1505 l0 -195 63 0 62 0 0 75 0 75 45 0 45 0 0 -75 0 -75 60 0
60 0 0 195 0 195 -60 0 -60 0 0 -70 0 -70 -45 0 -45 0 0 70 0 70 -62 0 -63 0
0 -195z m80 149 c0 -10 -8 -20 -18 -22 -22 -4 -35 27 -16 39 20 12 34 5 34
-17z m212 15 c16 -16 5 -39 -17 -39 -25 0 -35 18 -20 35 15 18 22 19 37 4z
m-209 -72 c4 -20 -25 -34 -40 -19 -15 15 -1 44 19 40 10 -2 19 -11 21 -21z
m209 12 c15 -15 5 -39 -17 -39 -22 0 -32 24 -17 39 6 6 14 11 17 11 3 0 11 -5
17 -11z m-209 -72 c4 -20 -25 -34 -40 -19 -15 15 -1 44 19 40 10 -2 19 -11 21
-21z m215 9 c7 -17 -18 -40 -33 -31 -5 3 -10 15 -10 26 0 23 35 27 43 5z
m-112 -50 c-14 -16 -41 -11 -41 8 0 7 5 17 12 24 19 19 46 -11 29 -32z m-51
15 c0 -27 -19 -36 -37 -18 -18 18 -9 37 18 37 12 0 19 -7 19 -19z m108 -3 c-2
-13 -10 -23 -18 -23 -8 0 -16 10 -18 23 -3 17 2 22 18 22 16 0 21 -5 18 -22z
m-160 -29 c4 -19 -19 -31 -38 -19 -18 11 -4 42 17 38 10 -2 19 -10 21 -19z
m215 7 c9 -22 -19 -42 -37 -26 -19 15 -10 40 14 40 10 0 20 -6 23 -14z m-213
-66 c0 -21 -33 -29 -45 -10 -9 15 4 30 26 30 12 0 19 -7 19 -20z m213 6 c7
-17 -1 -26 -24 -26 -21 0 -33 15 -24 30 9 15 42 12 48 -4z m-213 -67 c0 -12
-7 -19 -19 -19 -26 0 -36 17 -21 35 15 18 40 8 40 -16z m213 15 c11 -11 -5
-34 -23 -34 -22 0 -34 15 -25 30 7 11 38 14 48 4z"/>
<path d="M1310 1518 c-35 -101 -65 -189 -68 -195 -3 -10 13 -13 61 -13 56 0
65 3 70 20 4 17 14 20 71 20 59 0 66 -2 66 -20 0 -18 7 -20 68 -20 l69 0 -68
193 -67 192 -69 3 -70 3 -63 -183z m127 146 c3 -10 0 -22 -8 -28 -8 -6 -13
-18 -11 -28 5 -23 -17 -33 -35 -16 -13 13 -13 17 1 30 8 9 12 18 9 21 -10 11
6 37 22 37 9 0 18 -7 22 -16z m48 -9 c0 -11 6 -25 14 -31 8 -6 12 -18 8 -27
-3 -8 1 -21 9 -28 11 -9 12 -15 3 -25 -6 -8 -17 -14 -24 -14 -17 0 -27 27 -14
36 6 3 3 11 -7 19 -10 7 -15 19 -11 29 4 9 2 16 -3 16 -6 0 -10 12 -10 26 0
19 4 25 18 22 9 -2 17 -12 17 -23z m-85 -90 c13 -16 6 -35 -15 -35 -18 0 -28
17 -21 35 7 19 20 19 36 0z m74 -104 c5 -7 -5 -11 -29 -11 -30 0 -35 3 -31 18
3 9 8 31 12 47 11 51 17 51 30 3 6 -25 14 -51 18 -57z m-95 60 c17 -11 7 -41
-13 -41 -19 0 -29 17 -22 35 6 17 15 18 35 6z m159 -14 c4 -21 -25 -34 -40
-19 -8 8 -8 16 2 27 16 19 34 15 38 -8z m-179 -36 c17 -11 7 -41 -13 -41 -19
0 -29 17 -22 35 6 17 15 18 35 6z m196 -17 c0 -10 -8 -20 -18 -22 -22 -4 -35
27 -16 39 20 12 34 5 34 -17z m-205 -55 c0 -12 -7 -19 -19 -19 -26 0 -36 17
-21 35 15 18 40 8 40 -16z m51 -13 c-14 -16 -41 -11 -41 8 0 7 5 17 12 24 19
19 46 -11 29 -32z m57 8 c-4 -25 -32 -24 -36 0 -4 21 18 40 31 27 5 -5 7 -17
5 -27z m60 3 c-2 -11 -9 -22 -15 -25 -16 -4 -27 22 -19 43 8 22 38 6 34 -18z
m58 -6 c-10 -16 -36 -13 -43 5 -8 22 18 37 36 20 7 -8 10 -19 7 -25z m-239
-44 c-2 -7 -13 -13 -25 -15 -16 -3 -22 2 -22 16 0 10 3 22 6 25 10 10 46 -13
41 -26z m256 -3 c-6 -17 -39 -19 -49 -2 -10 17 26 40 42 27 7 -6 10 -17 7 -25z"/>
<path d="M1670 1505 l0 -195 110 0 110 0 0 50 0 50 -47 0 -48 0 3 145 3 145
-65 0 -66 0 0 -195z m88 152 c4 -20 -25 -34 -40 -19 -15 15 -1 44 19 40 10 -2
19 -11 21 -21z m0 -60 c4 -20 -25 -34 -40 -19 -15 15 -1 44 19 40 10 -2 19
-11 21 -21z m0 -60 c4 -20 -25 -34 -40 -19 -15 15 -1 44 19 40 10 -2 19 -11
21 -21z m0 -58 c4 -19 -19 -31 -38 -19 -18 11 -4 42 17 38 10 -2 19 -10 21
-19z m-3 -59 c0 -8 -10 -16 -22 -18 -18 -3 -23 2 -23 18 0 16 5 21 23 18 12
-2 22 -10 22 -18z m1 -69 c-4 -6 -16 -11 -27 -11 -21 0 -27 35 -6 43 16 6 41
-18 33 -32z m54 24 c15 -18 5 -35 -21 -35 -12 0 -19 7 -19 18 0 33 20 42 40
17z m58 -13 c3 -17 -2 -22 -17 -22 -14 0 -21 6 -21 18 0 38 33 41 38 4z"/>
<path d="M1920 1505 l0 -195 110 0 110 0 0 50 0 50 -51 0 -50 0 3 145 3 145
-62 0 -63 0 0 -195z m80 160 c15 -18 5 -35 -21 -35 -12 0 -19 7 -19 18 0 33
20 42 40 17z m8 -68 c4 -20 -25 -34 -40 -19 -15 15 -1 44 19 40 10 -2 19 -11
21 -21z m0 -60 c4 -20 -25 -34 -40 -19 -15 15 -1 44 19 40 10 -2 19 -11 21
-21z m-3 -47 c9 -15 -14 -40 -31 -33 -22 8 -18 43 5 43 11 0 23 -5 26 -10z m0
-70 c0 -8 -10 -16 -22 -18 -18 -3 -23 2 -23 18 0 16 5 21 23 18 12 -2 22 -10
22 -18z m1 -69 c-4 -6 -16 -11 -27 -11 -21 0 -27 35 -6 43 16 6 41 -18 33 -32z
m51 28 c16 -16 5 -39 -18 -39 -12 0 -19 7 -19 18 0 31 17 41 37 21z m61 -17
c3 -17 -2 -22 -17 -22 -14 0 -21 6 -21 18 0 38 33 41 38 4z"/>
</g>
</svg>
